<mxfile host="app.diagrams.net" modified="2024-01-30T16:56:15.526Z" agent="Mozilla/5.0 (Windows NT 10.0; Win64; x64) AppleWebKit/537.36 (KHTML, like Gecko) Chrome/120.0.0.0 Safari/537.36" etag="wqgHXQENoafMT62I5itf" version="23.0.2" type="github">
  <diagram name="Strona-1" id="yKga03g6jz8WkU559Z67">
    <mxGraphModel dx="2849" dy="4129" grid="1" gridSize="10" guides="1" tooltips="1" connect="1" arrows="1" fold="1" page="1" pageScale="1" pageWidth="827" pageHeight="1169" math="0" shadow="0">
      <root>
        <mxCell id="0" />
        <mxCell id="1" parent="0" />
        <mxCell id="xlWYKSIaAv-n1kslFOv--31" value="Shape" style="verticalAlign=top;align=left;spacingTop=8;spacingLeft=2;spacingRight=12;shape=cube;size=10;direction=south;fontStyle=4;html=1;whiteSpace=wrap;" parent="1" vertex="1">
          <mxGeometry x="1830" y="-2740" width="830" height="650" as="geometry" />
        </mxCell>
        <mxCell id="mdG-KwgYNuyGTxRHiD6k-51" value="Shape" style="verticalAlign=top;align=left;spacingTop=8;spacingLeft=2;spacingRight=12;shape=cube;size=10;direction=south;fontStyle=4;html=1;whiteSpace=wrap;" parent="1" vertex="1">
          <mxGeometry x="1510" y="-1940" width="650" height="510" as="geometry" />
        </mxCell>
        <mxCell id="QNOfKq-FGGehNb9AUrvW-5" style="edgeStyle=orthogonalEdgeStyle;rounded=0;orthogonalLoop=1;jettySize=auto;html=1;exitX=1;exitY=0.5;exitDx=0;exitDy=0;entryX=0;entryY=0.5;entryDx=0;entryDy=0;" parent="1" source="QNOfKq-FGGehNb9AUrvW-1" target="QNOfKq-FGGehNb9AUrvW-4" edge="1">
          <mxGeometry relative="1" as="geometry" />
        </mxCell>
        <mxCell id="QNOfKq-FGGehNb9AUrvW-7" style="edgeStyle=orthogonalEdgeStyle;rounded=0;orthogonalLoop=1;jettySize=auto;html=1;exitX=1;exitY=0.5;exitDx=0;exitDy=0;" parent="1" source="QNOfKq-FGGehNb9AUrvW-1" target="QNOfKq-FGGehNb9AUrvW-6" edge="1">
          <mxGeometry relative="1" as="geometry">
            <Array as="points">
              <mxPoint x="330" y="175" />
              <mxPoint x="330" y="270" />
            </Array>
          </mxGeometry>
        </mxCell>
        <mxCell id="QNOfKq-FGGehNb9AUrvW-1" value="User&lt;br&gt;&lt;b&gt;&lt;i&gt;ID:&lt;br&gt;Name:&lt;br&gt;Surname:&lt;br&gt;Position:&lt;br&gt;Total time:&lt;br&gt;Department:&lt;/i&gt;&lt;/b&gt;&lt;br&gt;HourCost:" style="rounded=0;whiteSpace=wrap;html=1;fillColor=#f8cecc;strokeColor=#b85450;" parent="1" vertex="1">
          <mxGeometry x="100" y="90" width="170" height="170" as="geometry" />
        </mxCell>
        <mxCell id="QNOfKq-FGGehNb9AUrvW-11" style="edgeStyle=orthogonalEdgeStyle;rounded=0;orthogonalLoop=1;jettySize=auto;html=1;exitX=1;exitY=0.5;exitDx=0;exitDy=0;entryX=0;entryY=0.5;entryDx=0;entryDy=0;" parent="1" source="QNOfKq-FGGehNb9AUrvW-4" target="QNOfKq-FGGehNb9AUrvW-9" edge="1">
          <mxGeometry relative="1" as="geometry">
            <Array as="points">
              <mxPoint x="520" y="90" />
              <mxPoint x="520" y="250" />
            </Array>
          </mxGeometry>
        </mxCell>
        <mxCell id="QNOfKq-FGGehNb9AUrvW-13" style="edgeStyle=orthogonalEdgeStyle;rounded=0;orthogonalLoop=1;jettySize=auto;html=1;exitX=1;exitY=0.5;exitDx=0;exitDy=0;entryX=0;entryY=0.5;entryDx=0;entryDy=0;" parent="1" source="QNOfKq-FGGehNb9AUrvW-4" target="QNOfKq-FGGehNb9AUrvW-12" edge="1">
          <mxGeometry relative="1" as="geometry" />
        </mxCell>
        <mxCell id="QNOfKq-FGGehNb9AUrvW-15" style="edgeStyle=orthogonalEdgeStyle;rounded=0;orthogonalLoop=1;jettySize=auto;html=1;exitX=1;exitY=0.5;exitDx=0;exitDy=0;entryX=0;entryY=0.5;entryDx=0;entryDy=0;" parent="1" source="QNOfKq-FGGehNb9AUrvW-4" target="QNOfKq-FGGehNb9AUrvW-14" edge="1">
          <mxGeometry relative="1" as="geometry" />
        </mxCell>
        <mxCell id="QNOfKq-FGGehNb9AUrvW-16" style="edgeStyle=orthogonalEdgeStyle;rounded=0;orthogonalLoop=1;jettySize=auto;html=1;exitX=1;exitY=0.5;exitDx=0;exitDy=0;entryX=0;entryY=0.5;entryDx=0;entryDy=0;" parent="1" source="QNOfKq-FGGehNb9AUrvW-4" target="QNOfKq-FGGehNb9AUrvW-17" edge="1">
          <mxGeometry relative="1" as="geometry">
            <mxPoint x="529.9999999999998" y="20" as="targetPoint" />
          </mxGeometry>
        </mxCell>
        <mxCell id="QNOfKq-FGGehNb9AUrvW-18" style="edgeStyle=orthogonalEdgeStyle;rounded=0;orthogonalLoop=1;jettySize=auto;html=1;exitX=1;exitY=0.5;exitDx=0;exitDy=0;entryX=0;entryY=0.5;entryDx=0;entryDy=0;" parent="1" source="QNOfKq-FGGehNb9AUrvW-4" target="QNOfKq-FGGehNb9AUrvW-19" edge="1">
          <mxGeometry relative="1" as="geometry">
            <mxPoint x="530" y="-70" as="targetPoint" />
          </mxGeometry>
        </mxCell>
        <mxCell id="QNOfKq-FGGehNb9AUrvW-26" style="edgeStyle=orthogonalEdgeStyle;rounded=0;orthogonalLoop=1;jettySize=auto;html=1;exitX=1;exitY=0.5;exitDx=0;exitDy=0;entryX=0;entryY=0.5;entryDx=0;entryDy=0;" parent="1" source="QNOfKq-FGGehNb9AUrvW-4" target="QNOfKq-FGGehNb9AUrvW-25" edge="1">
          <mxGeometry relative="1" as="geometry" />
        </mxCell>
        <mxCell id="QNOfKq-FGGehNb9AUrvW-4" value="Manager" style="rounded=0;whiteSpace=wrap;html=1;fillColor=#f8cecc;strokeColor=#b85450;" parent="1" vertex="1">
          <mxGeometry x="390" y="60" width="100" height="60" as="geometry" />
        </mxCell>
        <mxCell id="QNOfKq-FGGehNb9AUrvW-10" style="edgeStyle=orthogonalEdgeStyle;rounded=0;orthogonalLoop=1;jettySize=auto;html=1;exitX=1;exitY=0.5;exitDx=0;exitDy=0;" parent="1" source="QNOfKq-FGGehNb9AUrvW-6" target="QNOfKq-FGGehNb9AUrvW-9" edge="1">
          <mxGeometry relative="1" as="geometry" />
        </mxCell>
        <mxCell id="QNOfKq-FGGehNb9AUrvW-6" value="Worker" style="rounded=0;whiteSpace=wrap;html=1;fillColor=#f8cecc;strokeColor=#b85450;" parent="1" vertex="1">
          <mxGeometry x="400" y="240" width="90" height="60" as="geometry" />
        </mxCell>
        <mxCell id="QNOfKq-FGGehNb9AUrvW-30" style="edgeStyle=orthogonalEdgeStyle;rounded=0;orthogonalLoop=1;jettySize=auto;html=1;exitX=1;exitY=0.25;exitDx=0;exitDy=0;entryX=0;entryY=0.5;entryDx=0;entryDy=0;" parent="1" source="QNOfKq-FGGehNb9AUrvW-9" target="QNOfKq-FGGehNb9AUrvW-34" edge="1">
          <mxGeometry relative="1" as="geometry">
            <mxPoint x="760" y="235" as="targetPoint" />
          </mxGeometry>
        </mxCell>
        <mxCell id="QNOfKq-FGGehNb9AUrvW-31" style="edgeStyle=orthogonalEdgeStyle;rounded=0;orthogonalLoop=1;jettySize=auto;html=1;exitX=1;exitY=0.75;exitDx=0;exitDy=0;entryX=0;entryY=0.5;entryDx=0;entryDy=0;" parent="1" source="QNOfKq-FGGehNb9AUrvW-9" target="QNOfKq-FGGehNb9AUrvW-32" edge="1">
          <mxGeometry relative="1" as="geometry">
            <mxPoint x="760" y="265" as="targetPoint" />
          </mxGeometry>
        </mxCell>
        <mxCell id="QNOfKq-FGGehNb9AUrvW-9" value="Work Time" style="rounded=1;whiteSpace=wrap;html=1;fillColor=#f8cecc;strokeColor=#b85450;" parent="1" vertex="1">
          <mxGeometry x="570" y="220" width="120" height="60" as="geometry" />
        </mxCell>
        <mxCell id="QNOfKq-FGGehNb9AUrvW-24" style="edgeStyle=orthogonalEdgeStyle;rounded=0;orthogonalLoop=1;jettySize=auto;html=1;exitX=1;exitY=0.5;exitDx=0;exitDy=0;entryX=0;entryY=0.5;entryDx=0;entryDy=0;" parent="1" source="QNOfKq-FGGehNb9AUrvW-12" target="QNOfKq-FGGehNb9AUrvW-23" edge="1">
          <mxGeometry relative="1" as="geometry" />
        </mxCell>
        <mxCell id="QNOfKq-FGGehNb9AUrvW-12" value="Create new project" style="rounded=1;whiteSpace=wrap;html=1;fillColor=#f8cecc;strokeColor=#b85450;" parent="1" vertex="1">
          <mxGeometry x="580" y="130" width="120" height="60" as="geometry" />
        </mxCell>
        <mxCell id="QNOfKq-FGGehNb9AUrvW-35" style="edgeStyle=orthogonalEdgeStyle;rounded=0;orthogonalLoop=1;jettySize=auto;html=1;exitX=1;exitY=0.5;exitDx=0;exitDy=0;entryX=0;entryY=0.5;entryDx=0;entryDy=0;" parent="1" source="QNOfKq-FGGehNb9AUrvW-14" target="QNOfKq-FGGehNb9AUrvW-23" edge="1">
          <mxGeometry relative="1" as="geometry">
            <Array as="points">
              <mxPoint x="860" y="80" />
              <mxPoint x="860" y="115" />
            </Array>
          </mxGeometry>
        </mxCell>
        <mxCell id="QNOfKq-FGGehNb9AUrvW-14" value="Modfiy project" style="rounded=1;whiteSpace=wrap;html=1;fillColor=#f8cecc;strokeColor=#b85450;" parent="1" vertex="1">
          <mxGeometry x="580" y="50" width="120" height="60" as="geometry" />
        </mxCell>
        <mxCell id="QNOfKq-FGGehNb9AUrvW-22" style="edgeStyle=orthogonalEdgeStyle;rounded=0;orthogonalLoop=1;jettySize=auto;html=1;exitX=1;exitY=0.5;exitDx=0;exitDy=0;entryX=0.5;entryY=1;entryDx=0;entryDy=0;" parent="1" source="QNOfKq-FGGehNb9AUrvW-17" target="QNOfKq-FGGehNb9AUrvW-28" edge="1">
          <mxGeometry relative="1" as="geometry">
            <Array as="points">
              <mxPoint x="940" />
              <mxPoint x="940" y="-40" />
              <mxPoint x="810" y="-40" />
            </Array>
          </mxGeometry>
        </mxCell>
        <mxCell id="QNOfKq-FGGehNb9AUrvW-29" style="edgeStyle=orthogonalEdgeStyle;rounded=0;orthogonalLoop=1;jettySize=auto;html=1;exitX=1;exitY=0.5;exitDx=0;exitDy=0;entryX=0.5;entryY=1;entryDx=0;entryDy=0;" parent="1" source="QNOfKq-FGGehNb9AUrvW-17" target="QNOfKq-FGGehNb9AUrvW-21" edge="1">
          <mxGeometry relative="1" as="geometry">
            <Array as="points">
              <mxPoint x="720" />
              <mxPoint x="940" />
            </Array>
          </mxGeometry>
        </mxCell>
        <mxCell id="QNOfKq-FGGehNb9AUrvW-17" value="Generate raport" style="rounded=1;whiteSpace=wrap;html=1;" parent="1" vertex="1">
          <mxGeometry x="620" y="-40" width="100" height="60" as="geometry" />
        </mxCell>
        <mxCell id="QNOfKq-FGGehNb9AUrvW-19" value="Create new employee" style="rounded=1;whiteSpace=wrap;html=1;" parent="1" vertex="1">
          <mxGeometry x="600" y="-110" width="120" height="60" as="geometry" />
        </mxCell>
        <mxCell id="QNOfKq-FGGehNb9AUrvW-21" value="Project raport" style="rounded=1;whiteSpace=wrap;html=1;" parent="1" vertex="1">
          <mxGeometry x="880" y="-140" width="120" height="60" as="geometry" />
        </mxCell>
        <mxCell id="QNOfKq-FGGehNb9AUrvW-27" style="edgeStyle=orthogonalEdgeStyle;rounded=0;orthogonalLoop=1;jettySize=auto;html=1;exitX=0.5;exitY=1;exitDx=0;exitDy=0;entryX=0.5;entryY=1;entryDx=0;entryDy=0;" parent="1" source="QNOfKq-FGGehNb9AUrvW-23" target="QNOfKq-FGGehNb9AUrvW-1" edge="1">
          <mxGeometry relative="1" as="geometry">
            <Array as="points">
              <mxPoint x="1105" y="370" />
              <mxPoint x="185" y="370" />
            </Array>
          </mxGeometry>
        </mxCell>
        <mxCell id="QNOfKq-FGGehNb9AUrvW-23" value="Projekt:&lt;br&gt;&lt;i style=&quot;font-weight: bold;&quot;&gt;ID:&lt;/i&gt;&lt;br&gt;&lt;i style=&quot;font-weight: bold;&quot;&gt;Name:&lt;/i&gt;&lt;br&gt;&lt;i style=&quot;font-weight: bold;&quot;&gt;Total time:&lt;/i&gt;&lt;br&gt;Department:&lt;br&gt;TotalCost:" style="rounded=0;whiteSpace=wrap;html=1;fillColor=#f8cecc;strokeColor=#b85450;" parent="1" vertex="1">
          <mxGeometry x="1020" y="30" width="170" height="170" as="geometry" />
        </mxCell>
        <mxCell id="QNOfKq-FGGehNb9AUrvW-25" value="Modify employee" style="rounded=1;whiteSpace=wrap;html=1;" parent="1" vertex="1">
          <mxGeometry x="600" y="-180" width="120" height="60" as="geometry" />
        </mxCell>
        <mxCell id="QNOfKq-FGGehNb9AUrvW-28" value="Employee raport" style="rounded=1;whiteSpace=wrap;html=1;" parent="1" vertex="1">
          <mxGeometry x="750" y="-140" width="120" height="60" as="geometry" />
        </mxCell>
        <mxCell id="QNOfKq-FGGehNb9AUrvW-38" style="edgeStyle=orthogonalEdgeStyle;rounded=0;orthogonalLoop=1;jettySize=auto;html=1;exitX=1;exitY=0.5;exitDx=0;exitDy=0;" parent="1" source="QNOfKq-FGGehNb9AUrvW-32" target="QNOfKq-FGGehNb9AUrvW-36" edge="1">
          <mxGeometry relative="1" as="geometry" />
        </mxCell>
        <mxCell id="QNOfKq-FGGehNb9AUrvW-32" value="Stop:&lt;br&gt;Stop time&lt;br&gt;Set description" style="rounded=1;whiteSpace=wrap;html=1;fillColor=#f8cecc;strokeColor=#b85450;" parent="1" vertex="1">
          <mxGeometry x="810" y="270" width="120" height="60" as="geometry" />
        </mxCell>
        <mxCell id="QNOfKq-FGGehNb9AUrvW-37" style="edgeStyle=orthogonalEdgeStyle;rounded=0;orthogonalLoop=1;jettySize=auto;html=1;exitX=1;exitY=0.5;exitDx=0;exitDy=0;" parent="1" source="QNOfKq-FGGehNb9AUrvW-34" target="QNOfKq-FGGehNb9AUrvW-36" edge="1">
          <mxGeometry relative="1" as="geometry" />
        </mxCell>
        <mxCell id="QNOfKq-FGGehNb9AUrvW-34" value="Start:&lt;br&gt;Start time&lt;br&gt;Select project" style="rounded=1;whiteSpace=wrap;html=1;fillColor=#f8cecc;strokeColor=#b85450;" parent="1" vertex="1">
          <mxGeometry x="810" y="180" width="120" height="60" as="geometry" />
        </mxCell>
        <mxCell id="QNOfKq-FGGehNb9AUrvW-36" value="&lt;b&gt;&lt;i&gt;TimeEnter:&lt;br&gt;StartTime:&lt;br&gt;StopTime:&lt;br&gt;Project:&lt;br&gt;Description&lt;br&gt;Time:&lt;/i&gt;&lt;/b&gt;&lt;br&gt;Cost:" style="rounded=0;whiteSpace=wrap;html=1;fillColor=#f8cecc;strokeColor=#b85450;" parent="1" vertex="1">
          <mxGeometry x="1260" y="280" width="170" height="170" as="geometry" />
        </mxCell>
        <mxCell id="QNOfKq-FGGehNb9AUrvW-39" value="Admin" style="rounded=0;whiteSpace=wrap;html=1;" parent="1" vertex="1">
          <mxGeometry x="395" y="-40" width="100" height="60" as="geometry" />
        </mxCell>
        <mxCell id="QNOfKq-FGGehNb9AUrvW-40" style="edgeStyle=orthogonalEdgeStyle;rounded=0;orthogonalLoop=1;jettySize=auto;html=1;exitX=1;exitY=0.5;exitDx=0;exitDy=0;entryX=0;entryY=0.5;entryDx=0;entryDy=0;" parent="1" target="QNOfKq-FGGehNb9AUrvW-39" edge="1">
          <mxGeometry relative="1" as="geometry">
            <mxPoint x="210" y="157.98" as="sourcePoint" />
            <mxPoint x="310" y="-40" as="targetPoint" />
            <Array as="points">
              <mxPoint x="210" y="159" />
              <mxPoint x="330" y="159" />
              <mxPoint x="330" y="-10" />
            </Array>
          </mxGeometry>
        </mxCell>
        <mxCell id="SCXQhNfWWqAkwV2kOfwK-6" style="edgeStyle=orthogonalEdgeStyle;rounded=0;orthogonalLoop=1;jettySize=auto;html=1;exitX=1;exitY=0.25;exitDx=0;exitDy=0;entryX=0;entryY=0.5;entryDx=0;entryDy=0;" parent="1" source="SCXQhNfWWqAkwV2kOfwK-1" target="SCXQhNfWWqAkwV2kOfwK-2" edge="1">
          <mxGeometry relative="1" as="geometry" />
        </mxCell>
        <mxCell id="SCXQhNfWWqAkwV2kOfwK-7" style="edgeStyle=orthogonalEdgeStyle;rounded=0;orthogonalLoop=1;jettySize=auto;html=1;exitX=1;exitY=0.75;exitDx=0;exitDy=0;entryX=0;entryY=0.5;entryDx=0;entryDy=0;" parent="1" source="SCXQhNfWWqAkwV2kOfwK-1" target="SCXQhNfWWqAkwV2kOfwK-3" edge="1">
          <mxGeometry relative="1" as="geometry" />
        </mxCell>
        <mxCell id="SCXQhNfWWqAkwV2kOfwK-1" value="Wybierz typ użytkownika" style="rounded=0;whiteSpace=wrap;html=1;" parent="1" vertex="1">
          <mxGeometry x="50" y="970" width="120" height="60" as="geometry" />
        </mxCell>
        <mxCell id="SCXQhNfWWqAkwV2kOfwK-11" style="edgeStyle=orthogonalEdgeStyle;rounded=0;orthogonalLoop=1;jettySize=auto;html=1;exitX=1;exitY=0.5;exitDx=0;exitDy=0;entryX=0;entryY=0.5;entryDx=0;entryDy=0;" parent="1" source="SCXQhNfWWqAkwV2kOfwK-2" target="SCXQhNfWWqAkwV2kOfwK-8" edge="1">
          <mxGeometry relative="1" as="geometry">
            <Array as="points">
              <mxPoint x="630" y="900" />
              <mxPoint x="630" y="630" />
            </Array>
          </mxGeometry>
        </mxCell>
        <mxCell id="SCXQhNfWWqAkwV2kOfwK-12" style="edgeStyle=orthogonalEdgeStyle;rounded=0;orthogonalLoop=1;jettySize=auto;html=1;exitX=1;exitY=0.5;exitDx=0;exitDy=0;" parent="1" source="SCXQhNfWWqAkwV2kOfwK-2" target="SCXQhNfWWqAkwV2kOfwK-9" edge="1">
          <mxGeometry relative="1" as="geometry">
            <Array as="points">
              <mxPoint x="630" y="900" />
              <mxPoint x="630" y="800" />
            </Array>
          </mxGeometry>
        </mxCell>
        <mxCell id="SCXQhNfWWqAkwV2kOfwK-13" style="edgeStyle=orthogonalEdgeStyle;rounded=0;orthogonalLoop=1;jettySize=auto;html=1;exitX=1;exitY=0.5;exitDx=0;exitDy=0;entryX=0;entryY=0.5;entryDx=0;entryDy=0;" parent="1" source="SCXQhNfWWqAkwV2kOfwK-2" target="SCXQhNfWWqAkwV2kOfwK-10" edge="1">
          <mxGeometry relative="1" as="geometry">
            <Array as="points">
              <mxPoint x="630" y="900" />
              <mxPoint x="630" y="880" />
            </Array>
          </mxGeometry>
        </mxCell>
        <mxCell id="SCXQhNfWWqAkwV2kOfwK-23" style="edgeStyle=orthogonalEdgeStyle;rounded=0;orthogonalLoop=1;jettySize=auto;html=1;exitX=1;exitY=0.5;exitDx=0;exitDy=0;entryX=0;entryY=0.5;entryDx=0;entryDy=0;" parent="1" source="SCXQhNfWWqAkwV2kOfwK-2" target="SCXQhNfWWqAkwV2kOfwK-22" edge="1">
          <mxGeometry relative="1" as="geometry">
            <Array as="points">
              <mxPoint x="630" y="900" />
              <mxPoint x="630" y="960" />
            </Array>
          </mxGeometry>
        </mxCell>
        <mxCell id="SCXQhNfWWqAkwV2kOfwK-2" value="Manager" style="rounded=0;whiteSpace=wrap;html=1;" parent="1" vertex="1">
          <mxGeometry x="300" y="870" width="120" height="60" as="geometry" />
        </mxCell>
        <mxCell id="SCXQhNfWWqAkwV2kOfwK-15" style="edgeStyle=orthogonalEdgeStyle;rounded=0;orthogonalLoop=1;jettySize=auto;html=1;exitX=1;exitY=0.5;exitDx=0;exitDy=0;entryX=0;entryY=0.5;entryDx=0;entryDy=0;" parent="1" source="SCXQhNfWWqAkwV2kOfwK-3" target="SCXQhNfWWqAkwV2kOfwK-14" edge="1">
          <mxGeometry relative="1" as="geometry" />
        </mxCell>
        <mxCell id="SCXQhNfWWqAkwV2kOfwK-3" value="Worker" style="rounded=0;whiteSpace=wrap;html=1;" parent="1" vertex="1">
          <mxGeometry x="300" y="1250" width="120" height="60" as="geometry" />
        </mxCell>
        <mxCell id="SCXQhNfWWqAkwV2kOfwK-59" style="edgeStyle=orthogonalEdgeStyle;rounded=0;orthogonalLoop=1;jettySize=auto;html=1;exitX=1;exitY=0.5;exitDx=0;exitDy=0;entryX=0.5;entryY=0;entryDx=0;entryDy=0;" parent="1" source="SCXQhNfWWqAkwV2kOfwK-10" target="SCXQhNfWWqAkwV2kOfwK-58" edge="1">
          <mxGeometry relative="1" as="geometry" />
        </mxCell>
        <mxCell id="SCXQhNfWWqAkwV2kOfwK-10" value="Start work!" style="rounded=0;whiteSpace=wrap;html=1;" parent="1" vertex="1">
          <mxGeometry x="700" y="850" width="120" height="60" as="geometry" />
        </mxCell>
        <mxCell id="SCXQhNfWWqAkwV2kOfwK-14" value="Start work!" style="rounded=0;whiteSpace=wrap;html=1;" parent="1" vertex="1">
          <mxGeometry x="710" y="1250" width="120" height="60" as="geometry" />
        </mxCell>
        <mxCell id="SCXQhNfWWqAkwV2kOfwK-16" value="Stop work!" style="rounded=0;whiteSpace=wrap;html=1;" parent="1" vertex="1">
          <mxGeometry x="710" y="1410" width="120" height="60" as="geometry" />
        </mxCell>
        <mxCell id="SCXQhNfWWqAkwV2kOfwK-20" value="Exit" style="rounded=0;whiteSpace=wrap;html=1;" parent="1" vertex="1">
          <mxGeometry x="710" y="1490" width="120" height="60" as="geometry" />
        </mxCell>
        <mxCell id="SCXQhNfWWqAkwV2kOfwK-22" value="Exit" style="rounded=0;whiteSpace=wrap;html=1;" parent="1" vertex="1">
          <mxGeometry x="700" y="930" width="120" height="60" as="geometry" />
        </mxCell>
        <mxCell id="SCXQhNfWWqAkwV2kOfwK-24" value="" style="swimlane;startSize=0;fillColor=#fff2cc;strokeColor=#d6b656;" parent="1" vertex="1">
          <mxGeometry x="680" y="490" width="170" height="530" as="geometry" />
        </mxCell>
        <mxCell id="SCXQhNfWWqAkwV2kOfwK-8" value="Create new project" style="rounded=0;whiteSpace=wrap;html=1;" parent="SCXQhNfWWqAkwV2kOfwK-24" vertex="1">
          <mxGeometry x="20" y="30" width="120" height="60" as="geometry" />
        </mxCell>
        <mxCell id="SCXQhNfWWqAkwV2kOfwK-9" value="Modify project" style="rounded=0;whiteSpace=wrap;html=1;" parent="SCXQhNfWWqAkwV2kOfwK-24" vertex="1">
          <mxGeometry x="20" y="200" width="120" height="60" as="geometry" />
        </mxCell>
        <mxCell id="SCXQhNfWWqAkwV2kOfwK-42" style="edgeStyle=orthogonalEdgeStyle;rounded=0;orthogonalLoop=1;jettySize=auto;html=1;exitX=1;exitY=0.5;exitDx=0;exitDy=0;" parent="SCXQhNfWWqAkwV2kOfwK-24" source="SCXQhNfWWqAkwV2kOfwK-38" edge="1">
          <mxGeometry relative="1" as="geometry">
            <mxPoint x="330" y="140" as="targetPoint" />
          </mxGeometry>
        </mxCell>
        <mxCell id="SCXQhNfWWqAkwV2kOfwK-38" value="Remove project" style="rounded=0;whiteSpace=wrap;html=1;" parent="SCXQhNfWWqAkwV2kOfwK-24" vertex="1">
          <mxGeometry x="20" y="110" width="120" height="60" as="geometry" />
        </mxCell>
        <mxCell id="SCXQhNfWWqAkwV2kOfwK-44" style="edgeStyle=orthogonalEdgeStyle;rounded=0;orthogonalLoop=1;jettySize=auto;html=1;exitX=1;exitY=0.5;exitDx=0;exitDy=0;" parent="SCXQhNfWWqAkwV2kOfwK-24" source="SCXQhNfWWqAkwV2kOfwK-45" edge="1">
          <mxGeometry relative="1" as="geometry">
            <mxPoint x="510" y="309.8333333333335" as="targetPoint" />
            <Array as="points">
              <mxPoint x="510" y="320" />
              <mxPoint x="510" y="320" />
            </Array>
          </mxGeometry>
        </mxCell>
        <mxCell id="SCXQhNfWWqAkwV2kOfwK-43" value="Display all project" style="rounded=0;whiteSpace=wrap;html=1;" parent="SCXQhNfWWqAkwV2kOfwK-24" vertex="1">
          <mxGeometry x="20" y="280" width="120" height="60" as="geometry" />
        </mxCell>
        <mxCell id="SCXQhNfWWqAkwV2kOfwK-45" value="Display:--List of projects&lt;br&gt;Project.ID&lt;br&gt;Project.Name&lt;br&gt;Project.Totaltime" style="rounded=0;whiteSpace=wrap;html=1;" parent="SCXQhNfWWqAkwV2kOfwK-24" vertex="1">
          <mxGeometry x="390" y="260" width="120" height="90" as="geometry" />
        </mxCell>
        <mxCell id="SCXQhNfWWqAkwV2kOfwK-46" value="" style="edgeStyle=orthogonalEdgeStyle;rounded=0;orthogonalLoop=1;jettySize=auto;html=1;exitX=1;exitY=0.5;exitDx=0;exitDy=0;" parent="SCXQhNfWWqAkwV2kOfwK-24" source="SCXQhNfWWqAkwV2kOfwK-43" target="SCXQhNfWWqAkwV2kOfwK-45" edge="1">
          <mxGeometry relative="1" as="geometry">
            <mxPoint x="1190" y="799.8333333333335" as="targetPoint" />
            <mxPoint x="820" y="800" as="sourcePoint" />
          </mxGeometry>
        </mxCell>
        <mxCell id="SCXQhNfWWqAkwV2kOfwK-61" style="edgeStyle=orthogonalEdgeStyle;rounded=0;orthogonalLoop=1;jettySize=auto;html=1;exitX=0.5;exitY=1;exitDx=0;exitDy=0;entryX=1;entryY=0.695;entryDx=0;entryDy=0;entryPerimeter=0;" parent="SCXQhNfWWqAkwV2kOfwK-24" source="SCXQhNfWWqAkwV2kOfwK-45" target="SCXQhNfWWqAkwV2kOfwK-24" edge="1">
          <mxGeometry relative="1" as="geometry" />
        </mxCell>
        <mxCell id="SCXQhNfWWqAkwV2kOfwK-25" value="Exit" style="rounded=0;whiteSpace=wrap;html=1;" parent="1" vertex="1">
          <mxGeometry x="710" y="1320" width="120" height="60" as="geometry" />
        </mxCell>
        <mxCell id="SCXQhNfWWqAkwV2kOfwK-34" style="edgeStyle=orthogonalEdgeStyle;rounded=0;orthogonalLoop=1;jettySize=auto;html=1;exitX=1;exitY=0.5;exitDx=0;exitDy=0;entryX=1;entryY=0.5;entryDx=0;entryDy=0;" parent="1" source="SCXQhNfWWqAkwV2kOfwK-26" target="SCXQhNfWWqAkwV2kOfwK-27" edge="1">
          <mxGeometry relative="1" as="geometry">
            <mxPoint x="990" y="1480" as="targetPoint" />
          </mxGeometry>
        </mxCell>
        <mxCell id="SCXQhNfWWqAkwV2kOfwK-26" value="" style="swimlane;startSize=0;" parent="1" vertex="1">
          <mxGeometry x="660" y="1240" width="260" height="150" as="geometry" />
        </mxCell>
        <mxCell id="SCXQhNfWWqAkwV2kOfwK-35" style="edgeStyle=orthogonalEdgeStyle;rounded=0;orthogonalLoop=1;jettySize=auto;html=1;exitX=0;exitY=0.5;exitDx=0;exitDy=0;entryX=0;entryY=0.5;entryDx=0;entryDy=0;" parent="1" source="SCXQhNfWWqAkwV2kOfwK-27" target="SCXQhNfWWqAkwV2kOfwK-26" edge="1">
          <mxGeometry relative="1" as="geometry" />
        </mxCell>
        <mxCell id="SCXQhNfWWqAkwV2kOfwK-27" value="" style="swimlane;startSize=0;" parent="1" vertex="1">
          <mxGeometry x="660" y="1400" width="260" height="150" as="geometry" />
        </mxCell>
        <mxCell id="SCXQhNfWWqAkwV2kOfwK-39" style="edgeStyle=orthogonalEdgeStyle;rounded=0;orthogonalLoop=1;jettySize=auto;html=1;exitX=0.875;exitY=0.5;exitDx=0;exitDy=0;exitPerimeter=0;entryX=0;entryY=0.5;entryDx=0;entryDy=0;" parent="1" source="SCXQhNfWWqAkwV2kOfwK-29" target="SCXQhNfWWqAkwV2kOfwK-38" edge="1">
          <mxGeometry relative="1" as="geometry">
            <Array as="points">
              <mxPoint x="581" y="900" />
              <mxPoint x="630" y="900" />
              <mxPoint x="630" y="630" />
            </Array>
          </mxGeometry>
        </mxCell>
        <mxCell id="SCXQhNfWWqAkwV2kOfwK-29" value="Insert Name Surname" style="ellipse;shape=cloud;whiteSpace=wrap;html=1;" parent="1" vertex="1">
          <mxGeometry x="450" y="820" width="150" height="140" as="geometry" />
        </mxCell>
        <mxCell id="SCXQhNfWWqAkwV2kOfwK-30" value="Insert Name Surname" style="ellipse;shape=cloud;whiteSpace=wrap;html=1;" parent="1" vertex="1">
          <mxGeometry x="440" y="1210" width="150" height="140" as="geometry" />
        </mxCell>
        <mxCell id="SCXQhNfWWqAkwV2kOfwK-31" value="Insert ID&amp;nbsp;&lt;br&gt;" style="ellipse;shape=cloud;whiteSpace=wrap;html=1;" parent="1" vertex="1">
          <mxGeometry x="860" y="560" width="180" height="140" as="geometry" />
        </mxCell>
        <mxCell id="SCXQhNfWWqAkwV2kOfwK-48" value="Insert Name&amp;nbsp;" style="ellipse;shape=cloud;whiteSpace=wrap;html=1;" parent="1" vertex="1">
          <mxGeometry x="875" y="380" width="150" height="140" as="geometry" />
        </mxCell>
        <mxCell id="SCXQhNfWWqAkwV2kOfwK-49" style="edgeStyle=orthogonalEdgeStyle;rounded=0;orthogonalLoop=1;jettySize=auto;html=1;exitX=0.55;exitY=0.95;exitDx=0;exitDy=0;exitPerimeter=0;entryX=1.025;entryY=0.486;entryDx=0;entryDy=0;entryPerimeter=0;" parent="1" source="SCXQhNfWWqAkwV2kOfwK-31" target="SCXQhNfWWqAkwV2kOfwK-24" edge="1">
          <mxGeometry relative="1" as="geometry">
            <Array as="points">
              <mxPoint x="950" y="693" />
              <mxPoint x="950" y="748" />
              <mxPoint x="870" y="748" />
            </Array>
          </mxGeometry>
        </mxCell>
        <mxCell id="SCXQhNfWWqAkwV2kOfwK-50" value="Deleted sucess!" style="ellipse;shape=cloud;whiteSpace=wrap;html=1;" parent="1" vertex="1">
          <mxGeometry x="890" y="710" width="70" height="60" as="geometry" />
        </mxCell>
        <mxCell id="SCXQhNfWWqAkwV2kOfwK-51" style="edgeStyle=orthogonalEdgeStyle;rounded=0;orthogonalLoop=1;jettySize=auto;html=1;exitX=1;exitY=0.5;exitDx=0;exitDy=0;" parent="1" source="SCXQhNfWWqAkwV2kOfwK-8" target="SCXQhNfWWqAkwV2kOfwK-48" edge="1">
          <mxGeometry relative="1" as="geometry" />
        </mxCell>
        <mxCell id="SCXQhNfWWqAkwV2kOfwK-52" style="edgeStyle=orthogonalEdgeStyle;rounded=0;orthogonalLoop=1;jettySize=auto;html=1;exitX=0.55;exitY=0.95;exitDx=0;exitDy=0;exitPerimeter=0;entryX=0.998;entryY=0.162;entryDx=0;entryDy=0;entryPerimeter=0;" parent="1" source="SCXQhNfWWqAkwV2kOfwK-48" target="SCXQhNfWWqAkwV2kOfwK-24" edge="1">
          <mxGeometry relative="1" as="geometry">
            <Array as="points">
              <mxPoint x="950" y="513" />
              <mxPoint x="950" y="540" />
              <mxPoint x="900" y="540" />
              <mxPoint x="900" y="576" />
            </Array>
          </mxGeometry>
        </mxCell>
        <mxCell id="SCXQhNfWWqAkwV2kOfwK-56" value="Stop work!" style="rounded=0;whiteSpace=wrap;html=1;" parent="1" vertex="1">
          <mxGeometry x="960" y="980" width="120" height="60" as="geometry" />
        </mxCell>
        <mxCell id="SCXQhNfWWqAkwV2kOfwK-57" value="Exit" style="rounded=0;whiteSpace=wrap;html=1;" parent="1" vertex="1">
          <mxGeometry x="960" y="1060" width="120" height="60" as="geometry" />
        </mxCell>
        <mxCell id="SCXQhNfWWqAkwV2kOfwK-60" style="edgeStyle=orthogonalEdgeStyle;rounded=0;orthogonalLoop=1;jettySize=auto;html=1;exitX=0.75;exitY=1;exitDx=0;exitDy=0;entryX=0.5;entryY=1;entryDx=0;entryDy=0;" parent="1" source="SCXQhNfWWqAkwV2kOfwK-58" target="SCXQhNfWWqAkwV2kOfwK-24" edge="1">
          <mxGeometry relative="1" as="geometry" />
        </mxCell>
        <mxCell id="SCXQhNfWWqAkwV2kOfwK-58" value="" style="swimlane;startSize=0;" parent="1" vertex="1">
          <mxGeometry x="910" y="970" width="260" height="150" as="geometry" />
        </mxCell>
        <mxCell id="cQKYTx05mYOsWUVWVH_U-2" value="TimeEntry" style="swimlane;fontStyle=1;align=center;verticalAlign=top;childLayout=stackLayout;horizontal=1;startSize=26;horizontalStack=0;resizeParent=1;resizeParentMax=0;resizeLast=0;collapsible=1;marginBottom=0;whiteSpace=wrap;html=1;" parent="1" vertex="1">
          <mxGeometry x="300" y="-610" width="160" height="138" as="geometry">
            <mxRectangle x="350" y="-627" width="100" height="30" as="alternateBounds" />
          </mxGeometry>
        </mxCell>
        <mxCell id="cQKYTx05mYOsWUVWVH_U-3" value="- StartTime: TimeDate&lt;br&gt;- StopTime: TimeDate&lt;br&gt;- Project : Project&lt;br&gt;- User: User&lt;br&gt;+Description: string&lt;br&gt;-Time Timespan&lt;br&gt;" style="text;strokeColor=none;fillColor=none;align=left;verticalAlign=top;spacingLeft=4;spacingRight=4;overflow=hidden;rotatable=0;points=[[0,0.5],[1,0.5]];portConstraint=eastwest;whiteSpace=wrap;html=1;" parent="cQKYTx05mYOsWUVWVH_U-2" vertex="1">
          <mxGeometry y="26" width="160" height="104" as="geometry" />
        </mxCell>
        <mxCell id="cQKYTx05mYOsWUVWVH_U-4" value="" style="line;strokeWidth=1;fillColor=none;align=left;verticalAlign=middle;spacingTop=-1;spacingLeft=3;spacingRight=3;rotatable=0;labelPosition=right;points=[];portConstraint=eastwest;strokeColor=inherit;" parent="cQKYTx05mYOsWUVWVH_U-2" vertex="1">
          <mxGeometry y="130" width="160" height="8" as="geometry" />
        </mxCell>
        <mxCell id="cQKYTx05mYOsWUVWVH_U-10" value="Services: StartTimer" style="swimlane;fontStyle=0;childLayout=stackLayout;horizontal=1;startSize=26;fillColor=none;horizontalStack=0;resizeParent=1;resizeParentMax=0;resizeLast=0;collapsible=1;marginBottom=0;whiteSpace=wrap;html=1;" parent="1" vertex="1">
          <mxGeometry x="560" y="-620" width="170" height="100" as="geometry" />
        </mxCell>
        <mxCell id="cQKYTx05mYOsWUVWVH_U-11" value="+ Start(int Project,id, int User.id) : TimeEntry" style="text;strokeColor=none;fillColor=none;align=left;verticalAlign=top;spacingLeft=4;spacingRight=4;overflow=hidden;rotatable=0;points=[[0,0.5],[1,0.5]];portConstraint=eastwest;whiteSpace=wrap;html=1;" parent="cQKYTx05mYOsWUVWVH_U-10" vertex="1">
          <mxGeometry y="26" width="170" height="74" as="geometry" />
        </mxCell>
        <mxCell id="cQKYTx05mYOsWUVWVH_U-19" value="Services: StopTimer" style="swimlane;fontStyle=0;childLayout=stackLayout;horizontal=1;startSize=26;fillColor=none;horizontalStack=0;resizeParent=1;resizeParentMax=0;resizeLast=0;collapsible=1;marginBottom=0;whiteSpace=wrap;html=1;" parent="1" vertex="1">
          <mxGeometry x="560" y="-490" width="170" height="100" as="geometry" />
        </mxCell>
        <mxCell id="cQKYTx05mYOsWUVWVH_U-20" value="+ Stop(TimeEntry timentry) : TimeEntry" style="text;strokeColor=none;fillColor=none;align=left;verticalAlign=top;spacingLeft=4;spacingRight=4;overflow=hidden;rotatable=0;points=[[0,0.5],[1,0.5]];portConstraint=eastwest;whiteSpace=wrap;html=1;" parent="cQKYTx05mYOsWUVWVH_U-19" vertex="1">
          <mxGeometry y="26" width="170" height="74" as="geometry" />
        </mxCell>
        <mxCell id="cQKYTx05mYOsWUVWVH_U-21" value="" style="endArrow=block;endSize=16;endFill=0;html=1;rounded=0;" parent="1" edge="1">
          <mxGeometry width="160" relative="1" as="geometry">
            <mxPoint x="410" y="-790" as="sourcePoint" />
            <mxPoint x="570" y="-790" as="targetPoint" />
          </mxGeometry>
        </mxCell>
        <mxCell id="cQKYTx05mYOsWUVWVH_U-22" value="Dziedziczenie" style="edgeLabel;html=1;align=center;verticalAlign=middle;resizable=0;points=[];" parent="cQKYTx05mYOsWUVWVH_U-21" vertex="1" connectable="0">
          <mxGeometry x="0.2625" y="-1" relative="1" as="geometry">
            <mxPoint x="-16" y="-12" as="offset" />
          </mxGeometry>
        </mxCell>
        <mxCell id="cQKYTx05mYOsWUVWVH_U-23" value="Circle" style="swimlane;fontStyle=0;childLayout=stackLayout;horizontal=1;startSize=26;fillColor=none;horizontalStack=0;resizeParent=1;resizeParentMax=0;resizeLast=0;collapsible=1;marginBottom=0;whiteSpace=wrap;html=1;" parent="1" vertex="1">
          <mxGeometry x="270" y="-840" width="140" height="52" as="geometry" />
        </mxCell>
        <mxCell id="cQKYTx05mYOsWUVWVH_U-25" value="Córka" style="text;strokeColor=none;fillColor=none;align=left;verticalAlign=top;spacingLeft=4;spacingRight=4;overflow=hidden;rotatable=0;points=[[0,0.5],[1,0.5]];portConstraint=eastwest;whiteSpace=wrap;html=1;" parent="cQKYTx05mYOsWUVWVH_U-23" vertex="1">
          <mxGeometry y="26" width="140" height="26" as="geometry" />
        </mxCell>
        <mxCell id="cQKYTx05mYOsWUVWVH_U-27" value="Shape" style="swimlane;fontStyle=0;childLayout=stackLayout;horizontal=1;startSize=26;fillColor=none;horizontalStack=0;resizeParent=1;resizeParentMax=0;resizeLast=0;collapsible=1;marginBottom=0;whiteSpace=wrap;html=1;" parent="1" vertex="1">
          <mxGeometry x="570" y="-840" width="140" height="52" as="geometry" />
        </mxCell>
        <mxCell id="cQKYTx05mYOsWUVWVH_U-29" value="Matka" style="text;strokeColor=none;fillColor=none;align=left;verticalAlign=top;spacingLeft=4;spacingRight=4;overflow=hidden;rotatable=0;points=[[0,0.5],[1,0.5]];portConstraint=eastwest;whiteSpace=wrap;html=1;" parent="cQKYTx05mYOsWUVWVH_U-27" vertex="1">
          <mxGeometry y="26" width="140" height="26" as="geometry" />
        </mxCell>
        <mxCell id="UWL07aWPYAHgZYYo93iV-3" value="Circle" style="swimlane;fontStyle=0;childLayout=stackLayout;horizontal=1;startSize=26;fillColor=none;horizontalStack=0;resizeParent=1;resizeParentMax=0;resizeLast=0;collapsible=1;marginBottom=0;whiteSpace=wrap;html=1;" parent="1" vertex="1">
          <mxGeometry x="270" y="-940" width="140" height="52" as="geometry" />
        </mxCell>
        <mxCell id="UWL07aWPYAHgZYYo93iV-4" value="Klasa" style="text;strokeColor=none;fillColor=none;align=left;verticalAlign=top;spacingLeft=4;spacingRight=4;overflow=hidden;rotatable=0;points=[[0,0.5],[1,0.5]];portConstraint=eastwest;whiteSpace=wrap;html=1;" parent="UWL07aWPYAHgZYYo93iV-3" vertex="1">
          <mxGeometry y="26" width="140" height="26" as="geometry" />
        </mxCell>
        <mxCell id="UWL07aWPYAHgZYYo93iV-5" value="IShape" style="swimlane;fontStyle=0;childLayout=stackLayout;horizontal=1;startSize=26;fillColor=none;horizontalStack=0;resizeParent=1;resizeParentMax=0;resizeLast=0;collapsible=1;marginBottom=0;whiteSpace=wrap;html=1;" parent="1" vertex="1">
          <mxGeometry x="570" y="-940" width="140" height="52" as="geometry" />
        </mxCell>
        <mxCell id="UWL07aWPYAHgZYYo93iV-6" value="Interfejs" style="text;strokeColor=none;fillColor=none;align=left;verticalAlign=top;spacingLeft=4;spacingRight=4;overflow=hidden;rotatable=0;points=[[0,0.5],[1,0.5]];portConstraint=eastwest;whiteSpace=wrap;html=1;" parent="UWL07aWPYAHgZYYo93iV-5" vertex="1">
          <mxGeometry y="26" width="140" height="26" as="geometry" />
        </mxCell>
        <mxCell id="UWL07aWPYAHgZYYo93iV-7" value="" style="endArrow=block;dashed=1;endFill=0;endSize=12;html=1;rounded=0;" parent="1" edge="1">
          <mxGeometry width="160" relative="1" as="geometry">
            <mxPoint x="410" y="-914.5" as="sourcePoint" />
            <mxPoint x="570" y="-914" as="targetPoint" />
          </mxGeometry>
        </mxCell>
        <mxCell id="UWL07aWPYAHgZYYo93iV-8" value="Implementacja" style="edgeLabel;html=1;align=center;verticalAlign=middle;resizable=0;points=[];" parent="UWL07aWPYAHgZYYo93iV-7" vertex="1" connectable="0">
          <mxGeometry x="0.3625" y="2" relative="1" as="geometry">
            <mxPoint x="-24" y="-13" as="offset" />
          </mxGeometry>
        </mxCell>
        <mxCell id="UWL07aWPYAHgZYYo93iV-9" value="Side" style="swimlane;fontStyle=0;childLayout=stackLayout;horizontal=1;startSize=26;fillColor=none;horizontalStack=0;resizeParent=1;resizeParentMax=0;resizeLast=0;collapsible=1;marginBottom=0;whiteSpace=wrap;html=1;" parent="1" vertex="1">
          <mxGeometry x="270" y="-1030" width="140" height="52" as="geometry" />
        </mxCell>
        <mxCell id="UWL07aWPYAHgZYYo93iV-10" value="Klasa" style="text;strokeColor=none;fillColor=none;align=left;verticalAlign=top;spacingLeft=4;spacingRight=4;overflow=hidden;rotatable=0;points=[[0,0.5],[1,0.5]];portConstraint=eastwest;whiteSpace=wrap;html=1;" parent="UWL07aWPYAHgZYYo93iV-9" vertex="1">
          <mxGeometry y="26" width="140" height="26" as="geometry" />
        </mxCell>
        <mxCell id="UWL07aWPYAHgZYYo93iV-11" value="Shape" style="swimlane;fontStyle=0;childLayout=stackLayout;horizontal=1;startSize=26;fillColor=none;horizontalStack=0;resizeParent=1;resizeParentMax=0;resizeLast=0;collapsible=1;marginBottom=0;whiteSpace=wrap;html=1;" parent="1" vertex="1">
          <mxGeometry x="570" y="-1050" width="140" height="70" as="geometry" />
        </mxCell>
        <mxCell id="UWL07aWPYAHgZYYo93iV-12" value="Klasa&lt;br&gt;- Side a;" style="text;strokeColor=none;fillColor=none;align=left;verticalAlign=top;spacingLeft=4;spacingRight=4;overflow=hidden;rotatable=0;points=[[0,0.5],[1,0.5]];portConstraint=eastwest;whiteSpace=wrap;html=1;" parent="UWL07aWPYAHgZYYo93iV-11" vertex="1">
          <mxGeometry y="26" width="140" height="44" as="geometry" />
        </mxCell>
        <mxCell id="UWL07aWPYAHgZYYo93iV-17" value="1" style="endArrow=open;html=1;endSize=12;startArrow=diamondThin;startSize=14;startFill=1;edgeStyle=orthogonalEdgeStyle;align=left;verticalAlign=bottom;rounded=0;dashed=1;" parent="1" edge="1">
          <mxGeometry x="-1" y="3" relative="1" as="geometry">
            <mxPoint x="410" y="-1004.5" as="sourcePoint" />
            <mxPoint x="570" y="-1004.5" as="targetPoint" />
          </mxGeometry>
        </mxCell>
        <mxCell id="UWL07aWPYAHgZYYo93iV-18" value="Kompozycja&lt;br&gt;Shape zawiera Side&lt;br&gt;Side są zobligowane być tylko w Shape" style="edgeLabel;html=1;align=center;verticalAlign=middle;resizable=0;points=[];" parent="UWL07aWPYAHgZYYo93iV-17" vertex="1" connectable="0">
          <mxGeometry x="-0.0875" y="3" relative="1" as="geometry">
            <mxPoint x="-353" y="4" as="offset" />
          </mxGeometry>
        </mxCell>
        <mxCell id="UWL07aWPYAHgZYYo93iV-19" value="Side" style="swimlane;fontStyle=0;childLayout=stackLayout;horizontal=1;startSize=26;fillColor=none;horizontalStack=0;resizeParent=1;resizeParentMax=0;resizeLast=0;collapsible=1;marginBottom=0;whiteSpace=wrap;html=1;" parent="1" vertex="1">
          <mxGeometry x="270" y="-1130" width="140" height="52" as="geometry" />
        </mxCell>
        <mxCell id="UWL07aWPYAHgZYYo93iV-20" value="Klasa" style="text;strokeColor=none;fillColor=none;align=left;verticalAlign=top;spacingLeft=4;spacingRight=4;overflow=hidden;rotatable=0;points=[[0,0.5],[1,0.5]];portConstraint=eastwest;whiteSpace=wrap;html=1;" parent="UWL07aWPYAHgZYYo93iV-19" vertex="1">
          <mxGeometry y="26" width="140" height="26" as="geometry" />
        </mxCell>
        <mxCell id="UWL07aWPYAHgZYYo93iV-21" value="Shape" style="swimlane;fontStyle=0;childLayout=stackLayout;horizontal=1;startSize=26;fillColor=none;horizontalStack=0;resizeParent=1;resizeParentMax=0;resizeLast=0;collapsible=1;marginBottom=0;whiteSpace=wrap;html=1;" parent="1" vertex="1">
          <mxGeometry x="570" y="-1150" width="140" height="70" as="geometry" />
        </mxCell>
        <mxCell id="UWL07aWPYAHgZYYo93iV-22" value="Klasa&lt;br&gt;- Side a;" style="text;strokeColor=none;fillColor=none;align=left;verticalAlign=top;spacingLeft=4;spacingRight=4;overflow=hidden;rotatable=0;points=[[0,0.5],[1,0.5]];portConstraint=eastwest;whiteSpace=wrap;html=1;" parent="UWL07aWPYAHgZYYo93iV-21" vertex="1">
          <mxGeometry y="26" width="140" height="44" as="geometry" />
        </mxCell>
        <mxCell id="UWL07aWPYAHgZYYo93iV-23" value="1" style="endArrow=open;html=1;endSize=12;startArrow=diamondThin;startSize=14;startFill=0;edgeStyle=orthogonalEdgeStyle;align=left;verticalAlign=bottom;rounded=0;dashed=1;exitX=-0.002;exitY=1.068;exitDx=0;exitDy=0;exitPerimeter=0;entryX=1;entryY=0.5;entryDx=0;entryDy=0;" parent="1" source="W24ZyktB6x-WuUqiU-bX-10" target="W24ZyktB6x-WuUqiU-bX-1" edge="1">
          <mxGeometry x="-1" y="3" relative="1" as="geometry">
            <mxPoint x="20" y="-2355.5" as="sourcePoint" />
            <mxPoint x="50" y="-2286" as="targetPoint" />
          </mxGeometry>
        </mxCell>
        <mxCell id="UWL07aWPYAHgZYYo93iV-26" value="Side" style="swimlane;fontStyle=0;childLayout=stackLayout;horizontal=1;startSize=26;fillColor=none;horizontalStack=0;resizeParent=1;resizeParentMax=0;resizeLast=0;collapsible=1;marginBottom=0;whiteSpace=wrap;html=1;" parent="1" vertex="1">
          <mxGeometry x="570" y="-1240" width="140" height="52" as="geometry" />
        </mxCell>
        <mxCell id="UWL07aWPYAHgZYYo93iV-27" value="Klasa" style="text;strokeColor=none;fillColor=none;align=left;verticalAlign=top;spacingLeft=4;spacingRight=4;overflow=hidden;rotatable=0;points=[[0,0.5],[1,0.5]];portConstraint=eastwest;whiteSpace=wrap;html=1;" parent="UWL07aWPYAHgZYYo93iV-26" vertex="1">
          <mxGeometry y="26" width="140" height="26" as="geometry" />
        </mxCell>
        <mxCell id="UWL07aWPYAHgZYYo93iV-28" value="Shape" style="swimlane;fontStyle=0;childLayout=stackLayout;horizontal=1;startSize=26;fillColor=none;horizontalStack=0;resizeParent=1;resizeParentMax=0;resizeLast=0;collapsible=1;marginBottom=0;whiteSpace=wrap;html=1;" parent="1" vertex="1">
          <mxGeometry x="270" y="-1249" width="140" height="70" as="geometry" />
        </mxCell>
        <mxCell id="UWL07aWPYAHgZYYo93iV-29" value="Klasa&lt;br&gt;+Calculate(a:Side);" style="text;strokeColor=none;fillColor=none;align=left;verticalAlign=top;spacingLeft=4;spacingRight=4;overflow=hidden;rotatable=0;points=[[0,0.5],[1,0.5]];portConstraint=eastwest;whiteSpace=wrap;html=1;" parent="UWL07aWPYAHgZYYo93iV-28" vertex="1">
          <mxGeometry y="26" width="140" height="44" as="geometry" />
        </mxCell>
        <mxCell id="UWL07aWPYAHgZYYo93iV-30" value="1" style="endArrow=open;html=1;endSize=12;startArrow=none;startSize=14;startFill=0;edgeStyle=orthogonalEdgeStyle;align=left;verticalAlign=bottom;rounded=0;dashed=1;" parent="1" edge="1">
          <mxGeometry x="-1" y="3" relative="1" as="geometry">
            <mxPoint x="410" y="-1214" as="sourcePoint" />
            <mxPoint x="570" y="-1214.5" as="targetPoint" />
          </mxGeometry>
        </mxCell>
        <mxCell id="UWL07aWPYAHgZYYo93iV-31" value="Referencja&lt;br&gt;Shape w jakiś sposób używa Side&lt;br&gt;np w metodzie Calculate&amp;nbsp;" style="edgeLabel;html=1;align=center;verticalAlign=middle;resizable=0;points=[];" parent="UWL07aWPYAHgZYYo93iV-30" vertex="1" connectable="0">
          <mxGeometry x="-0.0875" y="3" relative="1" as="geometry">
            <mxPoint x="-353" y="3" as="offset" />
          </mxGeometry>
        </mxCell>
        <mxCell id="UWL07aWPYAHgZYYo93iV-32" value="Invoice" style="html=1;whiteSpace=wrap;rounded=1;" parent="1" vertex="1">
          <mxGeometry x="1390" y="-1030" width="110" height="50" as="geometry" />
        </mxCell>
        <mxCell id="UWL07aWPYAHgZYYo93iV-36" value="InvoiceBulider" style="swimlane;fontStyle=1;align=center;verticalAlign=top;childLayout=stackLayout;horizontal=1;startSize=26;horizontalStack=0;resizeParent=1;resizeParentMax=0;resizeLast=0;collapsible=1;marginBottom=0;whiteSpace=wrap;html=1;rounded=1;" parent="1" vertex="1">
          <mxGeometry x="1360" y="-1240" width="170" height="160" as="geometry" />
        </mxCell>
        <mxCell id="UWL07aWPYAHgZYYo93iV-37" value="- invoice : Invoice" style="text;strokeColor=none;fillColor=none;align=left;verticalAlign=top;spacingLeft=4;spacingRight=4;overflow=hidden;rotatable=0;points=[[0,0.5],[1,0.5]];portConstraint=eastwest;whiteSpace=wrap;html=1;" parent="UWL07aWPYAHgZYYo93iV-36" vertex="1">
          <mxGeometry y="26" width="170" height="26" as="geometry" />
        </mxCell>
        <mxCell id="UWL07aWPYAHgZYYo93iV-38" value="" style="line;strokeWidth=1;fillColor=none;align=left;verticalAlign=middle;spacingTop=-1;spacingLeft=3;spacingRight=3;rotatable=0;labelPosition=right;points=[];portConstraint=eastwest;strokeColor=inherit;" parent="UWL07aWPYAHgZYYo93iV-36" vertex="1">
          <mxGeometry y="52" width="170" height="8" as="geometry" />
        </mxCell>
        <mxCell id="UWL07aWPYAHgZYYo93iV-39" value="+ setVendor()&lt;br&gt;+ setVendee()&lt;br&gt;+ setNote()&lt;br&gt;+ setLineItem()&lt;br&gt;+ setPaymentMethod()&lt;br&gt;+ build()" style="text;strokeColor=none;fillColor=none;align=left;verticalAlign=top;spacingLeft=4;spacingRight=4;overflow=hidden;rotatable=0;points=[[0,0.5],[1,0.5]];portConstraint=eastwest;whiteSpace=wrap;html=1;" parent="UWL07aWPYAHgZYYo93iV-36" vertex="1">
          <mxGeometry y="60" width="170" height="100" as="geometry" />
        </mxCell>
        <mxCell id="UWL07aWPYAHgZYYo93iV-40" value="Creates" style="endArrow=open;endSize=12;dashed=1;html=1;rounded=0;exitX=0.535;exitY=1.04;exitDx=0;exitDy=0;exitPerimeter=0;entryX=0.46;entryY=0.552;entryDx=0;entryDy=0;entryPerimeter=0;" parent="1" source="UWL07aWPYAHgZYYo93iV-39" edge="1">
          <mxGeometry width="160" relative="1" as="geometry">
            <mxPoint x="1400" y="-1050" as="sourcePoint" />
            <mxPoint x="1451.8000000000002" y="-1037.056" as="targetPoint" />
          </mxGeometry>
        </mxCell>
        <mxCell id="UWL07aWPYAHgZYYo93iV-41" value="&amp;lt;&amp;lt;interface&amp;gt;&amp;gt;&lt;br&gt;IInvoiceBulider" style="swimlane;fontStyle=1;align=center;verticalAlign=top;childLayout=stackLayout;horizontal=1;startSize=40;horizontalStack=0;resizeParent=1;resizeParentMax=0;resizeLast=0;collapsible=1;marginBottom=0;whiteSpace=wrap;html=1;rounded=1;" parent="1" vertex="1">
          <mxGeometry x="1650" y="-1234" width="170" height="148" as="geometry" />
        </mxCell>
        <mxCell id="UWL07aWPYAHgZYYo93iV-43" value="" style="line;strokeWidth=1;fillColor=none;align=left;verticalAlign=middle;spacingTop=-1;spacingLeft=3;spacingRight=3;rotatable=0;labelPosition=right;points=[];portConstraint=eastwest;strokeColor=inherit;" parent="UWL07aWPYAHgZYYo93iV-41" vertex="1">
          <mxGeometry y="40" width="170" height="8" as="geometry" />
        </mxCell>
        <mxCell id="UWL07aWPYAHgZYYo93iV-44" value="+ setVendor()&lt;br&gt;+ setVendee()&lt;br&gt;+ setNote()&lt;br&gt;+ setLineItem()&lt;br&gt;+ setPaymentMethod()&lt;br&gt;+ build()" style="text;strokeColor=none;fillColor=none;align=left;verticalAlign=top;spacingLeft=4;spacingRight=4;overflow=hidden;rotatable=0;points=[[0,0.5],[1,0.5]];portConstraint=eastwest;whiteSpace=wrap;html=1;" parent="UWL07aWPYAHgZYYo93iV-41" vertex="1">
          <mxGeometry y="48" width="170" height="100" as="geometry" />
        </mxCell>
        <mxCell id="UWL07aWPYAHgZYYo93iV-45" value="" style="endArrow=block;dashed=1;endFill=0;endSize=12;html=1;rounded=0;entryX=-0.004;entryY=0.054;entryDx=0;entryDy=0;entryPerimeter=0;exitX=1.016;exitY=0.008;exitDx=0;exitDy=0;exitPerimeter=0;" parent="1" edge="1">
          <mxGeometry width="160" relative="1" as="geometry">
            <mxPoint x="1533.4000000000003" y="-1159.2999999999997" as="sourcePoint" />
            <mxPoint x="1650.0000000000002" y="-1160.7" as="targetPoint" />
          </mxGeometry>
        </mxCell>
        <mxCell id="UWL07aWPYAHgZYYo93iV-46" value="Implementacja" style="edgeLabel;html=1;align=center;verticalAlign=middle;resizable=0;points=[];" parent="UWL07aWPYAHgZYYo93iV-45" vertex="1" connectable="0">
          <mxGeometry x="0.3625" y="2" relative="1" as="geometry">
            <mxPoint x="-24" y="-13" as="offset" />
          </mxGeometry>
        </mxCell>
        <mxCell id="UWL07aWPYAHgZYYo93iV-47" value="Uses" style="endArrow=open;endSize=12;dashed=1;html=1;rounded=0;exitX=-0.002;exitY=0.287;exitDx=0;exitDy=0;exitPerimeter=0;entryX=1.004;entryY=0.354;entryDx=0;entryDy=0;entryPerimeter=0;" parent="1" edge="1">
          <mxGeometry x="-0.0909" y="14" width="160" relative="1" as="geometry">
            <mxPoint x="1928.9199999999998" y="-1160.4199999999998" as="sourcePoint" />
            <mxPoint x="1819.9999999999998" y="-1159.72" as="targetPoint" />
            <mxPoint as="offset" />
          </mxGeometry>
        </mxCell>
        <mxCell id="UWL07aWPYAHgZYYo93iV-49" value="Director" style="swimlane;fontStyle=1;align=center;verticalAlign=top;childLayout=stackLayout;horizontal=1;startSize=26;horizontalStack=0;resizeParent=1;resizeParentMax=0;resizeLast=0;collapsible=1;marginBottom=0;whiteSpace=wrap;html=1;rounded=1;" parent="1" vertex="1">
          <mxGeometry x="1930" y="-1240" width="200" height="160" as="geometry" />
        </mxCell>
        <mxCell id="UWL07aWPYAHgZYYo93iV-50" value="- builder :&amp;nbsp;IInvoiceBulider" style="text;strokeColor=none;fillColor=none;align=left;verticalAlign=top;spacingLeft=4;spacingRight=4;overflow=hidden;rotatable=0;points=[[0,0.5],[1,0.5]];portConstraint=eastwest;whiteSpace=wrap;html=1;" parent="UWL07aWPYAHgZYYo93iV-49" vertex="1">
          <mxGeometry y="26" width="200" height="26" as="geometry" />
        </mxCell>
        <mxCell id="UWL07aWPYAHgZYYo93iV-51" value="" style="line;strokeWidth=1;fillColor=none;align=left;verticalAlign=middle;spacingTop=-1;spacingLeft=3;spacingRight=3;rotatable=0;labelPosition=right;points=[];portConstraint=eastwest;strokeColor=inherit;" parent="UWL07aWPYAHgZYYo93iV-49" vertex="1">
          <mxGeometry y="52" width="200" height="8" as="geometry" />
        </mxCell>
        <mxCell id="UWL07aWPYAHgZYYo93iV-52" value="+CreateMonthlyInvoice(): Invoice&lt;br&gt;+CreateBlankInvoice(): Invoice" style="text;strokeColor=none;fillColor=none;align=left;verticalAlign=top;spacingLeft=4;spacingRight=4;overflow=hidden;rotatable=0;points=[[0,0.5],[1,0.5]];portConstraint=eastwest;whiteSpace=wrap;html=1;" parent="UWL07aWPYAHgZYYo93iV-49" vertex="1">
          <mxGeometry y="60" width="200" height="100" as="geometry" />
        </mxCell>
        <mxCell id="UWL07aWPYAHgZYYo93iV-53" value="Client" style="html=1;whiteSpace=wrap;rounded=1;" parent="1" vertex="1">
          <mxGeometry x="1740" y="-920" width="110" height="50" as="geometry" />
        </mxCell>
        <mxCell id="UWL07aWPYAHgZYYo93iV-55" value="Uses" style="endArrow=open;endSize=12;dashed=1;html=1;rounded=0;exitX=0.5;exitY=0;exitDx=0;exitDy=0;entryX=1.02;entryY=0.917;entryDx=0;entryDy=0;entryPerimeter=0;" parent="1" source="UWL07aWPYAHgZYYo93iV-53" target="UWL07aWPYAHgZYYo93iV-39" edge="1">
          <mxGeometry x="-0.0909" y="14" width="160" relative="1" as="geometry">
            <mxPoint x="1858.9199999999998" y="-989.9999999999999" as="sourcePoint" />
            <mxPoint x="1770" y="-1060" as="targetPoint" />
            <mxPoint as="offset" />
            <Array as="points">
              <mxPoint x="1670" y="-920" />
            </Array>
          </mxGeometry>
        </mxCell>
        <mxCell id="UWL07aWPYAHgZYYo93iV-56" value="Uses" style="endArrow=open;endSize=12;dashed=1;html=1;rounded=0;entryX=0.533;entryY=1.025;entryDx=0;entryDy=0;entryPerimeter=0;exitX=1;exitY=0;exitDx=0;exitDy=0;" parent="1" source="UWL07aWPYAHgZYYo93iV-53" target="UWL07aWPYAHgZYYo93iV-52" edge="1">
          <mxGeometry x="-0.0909" y="14" width="160" relative="1" as="geometry">
            <mxPoint x="1910" y="-916" as="sourcePoint" />
            <mxPoint x="2011.818181818182" y="-1086" as="targetPoint" />
            <mxPoint as="offset" />
            <Array as="points">
              <mxPoint x="1950" y="-916" />
            </Array>
          </mxGeometry>
        </mxCell>
        <mxCell id="mdG-KwgYNuyGTxRHiD6k-16" value="Circle" style="swimlane;fontStyle=1;align=center;verticalAlign=top;childLayout=stackLayout;horizontal=1;startSize=26;horizontalStack=0;resizeParent=1;resizeParentMax=0;resizeLast=0;collapsible=1;marginBottom=0;whiteSpace=wrap;html=1;" parent="1" vertex="1">
          <mxGeometry x="1550" y="-1590" width="160" height="124" as="geometry" />
        </mxCell>
        <mxCell id="mdG-KwgYNuyGTxRHiD6k-17" value="+ x: int&lt;br&gt;+ y: int" style="text;strokeColor=none;fillColor=none;align=left;verticalAlign=top;spacingLeft=4;spacingRight=4;overflow=hidden;rotatable=0;points=[[0,0.5],[1,0.5]];portConstraint=eastwest;whiteSpace=wrap;html=1;" parent="mdG-KwgYNuyGTxRHiD6k-16" vertex="1">
          <mxGeometry y="26" width="160" height="64" as="geometry" />
        </mxCell>
        <mxCell id="mdG-KwgYNuyGTxRHiD6k-18" value="" style="line;strokeWidth=1;fillColor=none;align=left;verticalAlign=middle;spacingTop=-1;spacingLeft=3;spacingRight=3;rotatable=0;labelPosition=right;points=[];portConstraint=eastwest;strokeColor=inherit;" parent="mdG-KwgYNuyGTxRHiD6k-16" vertex="1">
          <mxGeometry y="90" width="160" height="8" as="geometry" />
        </mxCell>
        <mxCell id="mdG-KwgYNuyGTxRHiD6k-19" value="+ render():&amp;nbsp;" style="text;strokeColor=none;fillColor=none;align=left;verticalAlign=top;spacingLeft=4;spacingRight=4;overflow=hidden;rotatable=0;points=[[0,0.5],[1,0.5]];portConstraint=eastwest;whiteSpace=wrap;html=1;" parent="mdG-KwgYNuyGTxRHiD6k-16" vertex="1">
          <mxGeometry y="98" width="160" height="26" as="geometry" />
        </mxCell>
        <mxCell id="mdG-KwgYNuyGTxRHiD6k-21" value="Triangle" style="swimlane;fontStyle=1;align=center;verticalAlign=top;childLayout=stackLayout;horizontal=1;startSize=26;horizontalStack=0;resizeParent=1;resizeParentMax=0;resizeLast=0;collapsible=1;marginBottom=0;whiteSpace=wrap;html=1;" parent="1" vertex="1">
          <mxGeometry x="1760" y="-1590" width="160" height="124" as="geometry" />
        </mxCell>
        <mxCell id="mdG-KwgYNuyGTxRHiD6k-22" value="+ x: int&lt;br&gt;+ y: int" style="text;strokeColor=none;fillColor=none;align=left;verticalAlign=top;spacingLeft=4;spacingRight=4;overflow=hidden;rotatable=0;points=[[0,0.5],[1,0.5]];portConstraint=eastwest;whiteSpace=wrap;html=1;" parent="mdG-KwgYNuyGTxRHiD6k-21" vertex="1">
          <mxGeometry y="26" width="160" height="64" as="geometry" />
        </mxCell>
        <mxCell id="mdG-KwgYNuyGTxRHiD6k-23" value="" style="line;strokeWidth=1;fillColor=none;align=left;verticalAlign=middle;spacingTop=-1;spacingLeft=3;spacingRight=3;rotatable=0;labelPosition=right;points=[];portConstraint=eastwest;strokeColor=inherit;" parent="mdG-KwgYNuyGTxRHiD6k-21" vertex="1">
          <mxGeometry y="90" width="160" height="8" as="geometry" />
        </mxCell>
        <mxCell id="mdG-KwgYNuyGTxRHiD6k-24" value="+ render():&amp;nbsp;" style="text;strokeColor=none;fillColor=none;align=left;verticalAlign=top;spacingLeft=4;spacingRight=4;overflow=hidden;rotatable=0;points=[[0,0.5],[1,0.5]];portConstraint=eastwest;whiteSpace=wrap;html=1;" parent="mdG-KwgYNuyGTxRHiD6k-21" vertex="1">
          <mxGeometry y="98" width="160" height="26" as="geometry" />
        </mxCell>
        <mxCell id="mdG-KwgYNuyGTxRHiD6k-29" value="Rectangular" style="swimlane;fontStyle=1;align=center;verticalAlign=top;childLayout=stackLayout;horizontal=1;startSize=26;horizontalStack=0;resizeParent=1;resizeParentMax=0;resizeLast=0;collapsible=1;marginBottom=0;whiteSpace=wrap;html=1;" parent="1" vertex="1">
          <mxGeometry x="1970" y="-1590" width="160" height="124" as="geometry" />
        </mxCell>
        <mxCell id="mdG-KwgYNuyGTxRHiD6k-30" value="+ x: int&lt;br&gt;+ y: int" style="text;strokeColor=none;fillColor=none;align=left;verticalAlign=top;spacingLeft=4;spacingRight=4;overflow=hidden;rotatable=0;points=[[0,0.5],[1,0.5]];portConstraint=eastwest;whiteSpace=wrap;html=1;" parent="mdG-KwgYNuyGTxRHiD6k-29" vertex="1">
          <mxGeometry y="26" width="160" height="64" as="geometry" />
        </mxCell>
        <mxCell id="mdG-KwgYNuyGTxRHiD6k-31" value="" style="line;strokeWidth=1;fillColor=none;align=left;verticalAlign=middle;spacingTop=-1;spacingLeft=3;spacingRight=3;rotatable=0;labelPosition=right;points=[];portConstraint=eastwest;strokeColor=inherit;" parent="mdG-KwgYNuyGTxRHiD6k-29" vertex="1">
          <mxGeometry y="90" width="160" height="8" as="geometry" />
        </mxCell>
        <mxCell id="mdG-KwgYNuyGTxRHiD6k-32" value="+ render():&amp;nbsp;" style="text;strokeColor=none;fillColor=none;align=left;verticalAlign=top;spacingLeft=4;spacingRight=4;overflow=hidden;rotatable=0;points=[[0,0.5],[1,0.5]];portConstraint=eastwest;whiteSpace=wrap;html=1;" parent="mdG-KwgYNuyGTxRHiD6k-29" vertex="1">
          <mxGeometry y="98" width="160" height="26" as="geometry" />
        </mxCell>
        <mxCell id="mdG-KwgYNuyGTxRHiD6k-33" value="Shape&lt;br&gt;&amp;lt;&amp;lt;abstract&amp;gt;&amp;gt;" style="swimlane;fontStyle=1;align=center;verticalAlign=top;childLayout=stackLayout;horizontal=1;startSize=50;horizontalStack=0;resizeParent=1;resizeParentMax=0;resizeLast=0;collapsible=1;marginBottom=0;whiteSpace=wrap;html=1;" parent="1" vertex="1">
          <mxGeometry x="1750" y="-1901" width="160" height="148" as="geometry" />
        </mxCell>
        <mxCell id="mdG-KwgYNuyGTxRHiD6k-34" value="+ x: int&lt;br&gt;+ y: int" style="text;strokeColor=none;fillColor=none;align=left;verticalAlign=top;spacingLeft=4;spacingRight=4;overflow=hidden;rotatable=0;points=[[0,0.5],[1,0.5]];portConstraint=eastwest;whiteSpace=wrap;html=1;" parent="mdG-KwgYNuyGTxRHiD6k-33" vertex="1">
          <mxGeometry y="50" width="160" height="64" as="geometry" />
        </mxCell>
        <mxCell id="mdG-KwgYNuyGTxRHiD6k-35" value="" style="line;strokeWidth=1;fillColor=none;align=left;verticalAlign=middle;spacingTop=-1;spacingLeft=3;spacingRight=3;rotatable=0;labelPosition=right;points=[];portConstraint=eastwest;strokeColor=inherit;" parent="mdG-KwgYNuyGTxRHiD6k-33" vertex="1">
          <mxGeometry y="114" width="160" height="8" as="geometry" />
        </mxCell>
        <mxCell id="mdG-KwgYNuyGTxRHiD6k-36" value="+ render():&amp;nbsp;" style="text;strokeColor=none;fillColor=none;align=left;verticalAlign=top;spacingLeft=4;spacingRight=4;overflow=hidden;rotatable=0;points=[[0,0.5],[1,0.5]];portConstraint=eastwest;whiteSpace=wrap;html=1;" parent="mdG-KwgYNuyGTxRHiD6k-33" vertex="1">
          <mxGeometry y="122" width="160" height="26" as="geometry" />
        </mxCell>
        <mxCell id="mdG-KwgYNuyGTxRHiD6k-38" value="" style="endArrow=block;endSize=16;endFill=0;html=1;rounded=0;entryX=0.519;entryY=1.154;entryDx=0;entryDy=0;entryPerimeter=0;" parent="1" target="mdG-KwgYNuyGTxRHiD6k-36" edge="1">
          <mxGeometry width="160" relative="1" as="geometry">
            <mxPoint x="1630" y="-1590" as="sourcePoint" />
            <mxPoint x="1820" y="-1670" as="targetPoint" />
          </mxGeometry>
        </mxCell>
        <mxCell id="mdG-KwgYNuyGTxRHiD6k-39" value="Dziedziczenie" style="edgeLabel;html=1;align=center;verticalAlign=middle;resizable=0;points=[];" parent="mdG-KwgYNuyGTxRHiD6k-38" vertex="1" connectable="0">
          <mxGeometry x="0.2625" y="-1" relative="1" as="geometry">
            <mxPoint x="-16" y="-12" as="offset" />
          </mxGeometry>
        </mxCell>
        <mxCell id="mdG-KwgYNuyGTxRHiD6k-40" value="" style="endArrow=block;endSize=16;endFill=0;html=1;rounded=0;exitX=0.5;exitY=0;exitDx=0;exitDy=0;" parent="1" source="mdG-KwgYNuyGTxRHiD6k-21" target="mdG-KwgYNuyGTxRHiD6k-36" edge="1">
          <mxGeometry width="160" relative="1" as="geometry">
            <mxPoint x="1640" y="-1580" as="sourcePoint" />
            <mxPoint x="1825" y="-1743" as="targetPoint" />
          </mxGeometry>
        </mxCell>
        <mxCell id="mdG-KwgYNuyGTxRHiD6k-41" value="Dziedziczenie" style="edgeLabel;html=1;align=center;verticalAlign=middle;resizable=0;points=[];" parent="mdG-KwgYNuyGTxRHiD6k-40" vertex="1" connectable="0">
          <mxGeometry x="0.2625" y="-1" relative="1" as="geometry">
            <mxPoint x="-16" y="-12" as="offset" />
          </mxGeometry>
        </mxCell>
        <mxCell id="mdG-KwgYNuyGTxRHiD6k-42" value="" style="endArrow=block;endSize=16;endFill=0;html=1;rounded=0;exitX=0.5;exitY=0;exitDx=0;exitDy=0;" parent="1" source="mdG-KwgYNuyGTxRHiD6k-29" edge="1">
          <mxGeometry width="160" relative="1" as="geometry">
            <mxPoint x="1850" y="-1580" as="sourcePoint" />
            <mxPoint x="1830" y="-1750" as="targetPoint" />
          </mxGeometry>
        </mxCell>
        <mxCell id="mdG-KwgYNuyGTxRHiD6k-43" value="Dziedziczenie" style="edgeLabel;html=1;align=center;verticalAlign=middle;resizable=0;points=[];" parent="mdG-KwgYNuyGTxRHiD6k-42" vertex="1" connectable="0">
          <mxGeometry x="0.2625" y="-1" relative="1" as="geometry">
            <mxPoint x="-16" y="-12" as="offset" />
          </mxGeometry>
        </mxCell>
        <mxCell id="mdG-KwgYNuyGTxRHiD6k-44" value="ShapeFactory" style="swimlane;fontStyle=1;align=center;verticalAlign=top;childLayout=stackLayout;horizontal=1;startSize=50;horizontalStack=0;resizeParent=1;resizeParentMax=0;resizeLast=0;collapsible=1;marginBottom=0;whiteSpace=wrap;html=1;" parent="1" vertex="1">
          <mxGeometry x="2430" y="-1790" width="190" height="120" as="geometry" />
        </mxCell>
        <mxCell id="mdG-KwgYNuyGTxRHiD6k-46" value="" style="line;strokeWidth=1;fillColor=none;align=left;verticalAlign=middle;spacingTop=-1;spacingLeft=3;spacingRight=3;rotatable=0;labelPosition=right;points=[];portConstraint=eastwest;strokeColor=inherit;" parent="mdG-KwgYNuyGTxRHiD6k-44" vertex="1">
          <mxGeometry y="50" width="190" height="8" as="geometry" />
        </mxCell>
        <mxCell id="mdG-KwgYNuyGTxRHiD6k-47" value="+ createShape(type): Shape&amp;nbsp;" style="text;strokeColor=none;fillColor=none;align=left;verticalAlign=top;spacingLeft=4;spacingRight=4;overflow=hidden;rotatable=0;points=[[0,0.5],[1,0.5]];portConstraint=eastwest;whiteSpace=wrap;html=1;" parent="mdG-KwgYNuyGTxRHiD6k-44" vertex="1">
          <mxGeometry y="58" width="190" height="62" as="geometry" />
        </mxCell>
        <mxCell id="mdG-KwgYNuyGTxRHiD6k-52" value="1" style="endArrow=open;html=1;endSize=12;startArrow=none;startSize=14;startFill=0;edgeStyle=orthogonalEdgeStyle;align=left;verticalAlign=bottom;rounded=0;dashed=1;" parent="1" target="mdG-KwgYNuyGTxRHiD6k-51" edge="1">
          <mxGeometry x="-1" y="3" relative="1" as="geometry">
            <mxPoint x="2430" y="-1730" as="sourcePoint" />
            <mxPoint x="2239.27" y="-1693.2600000000002" as="targetPoint" />
            <Array as="points">
              <mxPoint x="2430" y="-1720" />
            </Array>
          </mxGeometry>
        </mxCell>
        <mxCell id="mdG-KwgYNuyGTxRHiD6k-59" value="Creates" style="edgeLabel;html=1;align=center;verticalAlign=middle;resizable=0;points=[];" parent="mdG-KwgYNuyGTxRHiD6k-52" vertex="1" connectable="0">
          <mxGeometry x="0.11" y="-1" relative="1" as="geometry">
            <mxPoint as="offset" />
          </mxGeometry>
        </mxCell>
        <mxCell id="mdG-KwgYNuyGTxRHiD6k-54" value="ShapeFactory" style="swimlane;fontStyle=1;align=center;verticalAlign=top;childLayout=stackLayout;horizontal=1;startSize=50;horizontalStack=0;resizeParent=1;resizeParentMax=0;resizeLast=0;collapsible=1;marginBottom=0;whiteSpace=wrap;html=1;" parent="1" vertex="1">
          <mxGeometry x="2430" y="-2030" width="190" height="120" as="geometry" />
        </mxCell>
        <mxCell id="mdG-KwgYNuyGTxRHiD6k-55" value="" style="line;strokeWidth=1;fillColor=none;align=left;verticalAlign=middle;spacingTop=-1;spacingLeft=3;spacingRight=3;rotatable=0;labelPosition=right;points=[];portConstraint=eastwest;strokeColor=inherit;" parent="mdG-KwgYNuyGTxRHiD6k-54" vertex="1">
          <mxGeometry y="50" width="190" height="8" as="geometry" />
        </mxCell>
        <mxCell id="mdG-KwgYNuyGTxRHiD6k-56" value="+ createShape(type): Shape&amp;nbsp;" style="text;strokeColor=none;fillColor=none;align=left;verticalAlign=top;spacingLeft=4;spacingRight=4;overflow=hidden;rotatable=0;points=[[0,0.5],[1,0.5]];portConstraint=eastwest;whiteSpace=wrap;html=1;" parent="mdG-KwgYNuyGTxRHiD6k-54" vertex="1">
          <mxGeometry y="58" width="190" height="62" as="geometry" />
        </mxCell>
        <mxCell id="mdG-KwgYNuyGTxRHiD6k-57" value="1" style="endArrow=open;html=1;endSize=12;startArrow=none;startSize=14;startFill=0;edgeStyle=orthogonalEdgeStyle;align=left;verticalAlign=bottom;rounded=0;dashed=1;exitX=0.516;exitY=1.032;exitDx=0;exitDy=0;exitPerimeter=0;entryX=0.5;entryY=0;entryDx=0;entryDy=0;" parent="1" source="mdG-KwgYNuyGTxRHiD6k-56" target="mdG-KwgYNuyGTxRHiD6k-44" edge="1">
          <mxGeometry x="-1" y="3" relative="1" as="geometry">
            <mxPoint x="2630" y="-1870" as="sourcePoint" />
            <mxPoint x="2440" y="-1860" as="targetPoint" />
            <Array as="points">
              <mxPoint x="2525" y="-1908" />
            </Array>
          </mxGeometry>
        </mxCell>
        <mxCell id="mdG-KwgYNuyGTxRHiD6k-60" value="Uses" style="edgeLabel;html=1;align=center;verticalAlign=middle;resizable=0;points=[];" parent="mdG-KwgYNuyGTxRHiD6k-57" vertex="1" connectable="0">
          <mxGeometry x="-0.041" y="1" relative="1" as="geometry">
            <mxPoint as="offset" />
          </mxGeometry>
        </mxCell>
        <mxCell id="SodjdnCDTOWis-OXcSEg-3" value="«interface»&lt;br&gt;&lt;b&gt;Button&lt;/b&gt;" style="html=1;whiteSpace=wrap;" parent="1" vertex="1">
          <mxGeometry x="2690" y="-1340" width="110" height="50" as="geometry" />
        </mxCell>
        <mxCell id="SodjdnCDTOWis-OXcSEg-4" value="«interface»&lt;br&gt;&lt;b&gt;Textbox&lt;/b&gt;" style="html=1;whiteSpace=wrap;" parent="1" vertex="1">
          <mxGeometry x="2840" y="-1340" width="110" height="50" as="geometry" />
        </mxCell>
        <mxCell id="SodjdnCDTOWis-OXcSEg-5" value="WindowsButton" style="html=1;whiteSpace=wrap;" parent="1" vertex="1">
          <mxGeometry x="2690" y="-1480" width="110" height="50" as="geometry" />
        </mxCell>
        <mxCell id="SodjdnCDTOWis-OXcSEg-6" value="WindowsTextbox" style="html=1;whiteSpace=wrap;" parent="1" vertex="1">
          <mxGeometry x="2840" y="-1480" width="110" height="50" as="geometry" />
        </mxCell>
        <mxCell id="SodjdnCDTOWis-OXcSEg-7" value="Extends" style="endArrow=block;endSize=16;endFill=0;html=1;rounded=0;entryX=0.5;entryY=0;entryDx=0;entryDy=0;exitX=0.5;exitY=1;exitDx=0;exitDy=0;" parent="1" source="SodjdnCDTOWis-OXcSEg-5" target="SodjdnCDTOWis-OXcSEg-3" edge="1">
          <mxGeometry width="160" relative="1" as="geometry">
            <mxPoint x="2745" y="-1410" as="sourcePoint" />
            <mxPoint x="2900" y="-1420" as="targetPoint" />
          </mxGeometry>
        </mxCell>
        <mxCell id="SodjdnCDTOWis-OXcSEg-8" value="Extends" style="endArrow=block;endSize=16;endFill=0;html=1;rounded=0;entryX=0.5;entryY=0;entryDx=0;entryDy=0;exitX=0.5;exitY=1;exitDx=0;exitDy=0;" parent="1" edge="1">
          <mxGeometry width="160" relative="1" as="geometry">
            <mxPoint x="2894.7" y="-1430" as="sourcePoint" />
            <mxPoint x="2894.7" y="-1340" as="targetPoint" />
          </mxGeometry>
        </mxCell>
        <mxCell id="SodjdnCDTOWis-OXcSEg-9" value="MacButton" style="html=1;whiteSpace=wrap;" parent="1" vertex="1">
          <mxGeometry x="2690" y="-1210" width="110" height="50" as="geometry" />
        </mxCell>
        <mxCell id="SodjdnCDTOWis-OXcSEg-10" value="MacTextbox" style="html=1;whiteSpace=wrap;" parent="1" vertex="1">
          <mxGeometry x="2840" y="-1210" width="110" height="50" as="geometry" />
        </mxCell>
        <mxCell id="SodjdnCDTOWis-OXcSEg-11" value="Extends" style="endArrow=block;endSize=16;endFill=0;html=1;rounded=0;entryX=0.5;entryY=1;entryDx=0;entryDy=0;exitX=0.5;exitY=0;exitDx=0;exitDy=0;" parent="1" source="SodjdnCDTOWis-OXcSEg-9" target="SodjdnCDTOWis-OXcSEg-3" edge="1">
          <mxGeometry width="160" relative="1" as="geometry">
            <mxPoint x="2735" y="-1140" as="sourcePoint" />
            <mxPoint x="2735" y="-1070" as="targetPoint" />
          </mxGeometry>
        </mxCell>
        <mxCell id="SodjdnCDTOWis-OXcSEg-12" value="Extends" style="endArrow=block;endSize=16;endFill=0;html=1;rounded=0;entryX=0.5;entryY=1;entryDx=0;entryDy=0;exitX=0.5;exitY=0;exitDx=0;exitDy=0;" parent="1" source="SodjdnCDTOWis-OXcSEg-10" target="SodjdnCDTOWis-OXcSEg-4" edge="1">
          <mxGeometry width="160" relative="1" as="geometry">
            <mxPoint x="2884.7" y="-1160" as="sourcePoint" />
            <mxPoint x="2884.7" y="-1070" as="targetPoint" />
          </mxGeometry>
        </mxCell>
        <mxCell id="SodjdnCDTOWis-OXcSEg-14" value="MacFactory" style="swimlane;fontStyle=1;align=center;verticalAlign=top;childLayout=stackLayout;horizontal=1;startSize=50;horizontalStack=0;resizeParent=1;resizeParentMax=0;resizeLast=0;collapsible=1;marginBottom=0;whiteSpace=wrap;html=1;" parent="1" vertex="1">
          <mxGeometry x="3090" y="-1130" width="190" height="120" as="geometry" />
        </mxCell>
        <mxCell id="SodjdnCDTOWis-OXcSEg-15" value="" style="line;strokeWidth=1;fillColor=none;align=left;verticalAlign=middle;spacingTop=-1;spacingLeft=3;spacingRight=3;rotatable=0;labelPosition=right;points=[];portConstraint=eastwest;strokeColor=inherit;" parent="SodjdnCDTOWis-OXcSEg-14" vertex="1">
          <mxGeometry y="50" width="190" height="8" as="geometry" />
        </mxCell>
        <mxCell id="SodjdnCDTOWis-OXcSEg-16" value="+ createButton(): Button&lt;br&gt;+ createTextbox(): Textbox" style="text;strokeColor=none;fillColor=none;align=left;verticalAlign=top;spacingLeft=4;spacingRight=4;overflow=hidden;rotatable=0;points=[[0,0.5],[1,0.5]];portConstraint=eastwest;whiteSpace=wrap;html=1;" parent="SodjdnCDTOWis-OXcSEg-14" vertex="1">
          <mxGeometry y="58" width="190" height="62" as="geometry" />
        </mxCell>
        <mxCell id="SodjdnCDTOWis-OXcSEg-17" value="WindowsFactory" style="swimlane;fontStyle=1;align=center;verticalAlign=top;childLayout=stackLayout;horizontal=1;startSize=50;horizontalStack=0;resizeParent=1;resizeParentMax=0;resizeLast=0;collapsible=1;marginBottom=0;whiteSpace=wrap;html=1;" parent="1" vertex="1">
          <mxGeometry x="3080" y="-1630" width="190" height="120" as="geometry" />
        </mxCell>
        <mxCell id="SodjdnCDTOWis-OXcSEg-18" value="" style="line;strokeWidth=1;fillColor=none;align=left;verticalAlign=middle;spacingTop=-1;spacingLeft=3;spacingRight=3;rotatable=0;labelPosition=right;points=[];portConstraint=eastwest;strokeColor=inherit;" parent="SodjdnCDTOWis-OXcSEg-17" vertex="1">
          <mxGeometry y="50" width="190" height="8" as="geometry" />
        </mxCell>
        <mxCell id="SodjdnCDTOWis-OXcSEg-19" value="+ createButton(): Button&lt;br&gt;+ createTextbox(): Textbox" style="text;strokeColor=none;fillColor=none;align=left;verticalAlign=top;spacingLeft=4;spacingRight=4;overflow=hidden;rotatable=0;points=[[0,0.5],[1,0.5]];portConstraint=eastwest;whiteSpace=wrap;html=1;" parent="SodjdnCDTOWis-OXcSEg-17" vertex="1">
          <mxGeometry y="58" width="190" height="62" as="geometry" />
        </mxCell>
        <mxCell id="SodjdnCDTOWis-OXcSEg-20" value="Creates" style="endArrow=open;endSize=12;dashed=1;html=1;rounded=0;entryX=0.5;entryY=1;entryDx=0;entryDy=0;exitX=0;exitY=0.5;exitDx=0;exitDy=0;" parent="1" source="SodjdnCDTOWis-OXcSEg-16" target="SodjdnCDTOWis-OXcSEg-9" edge="1">
          <mxGeometry x="-0.0909" y="14" width="160" relative="1" as="geometry">
            <mxPoint x="2750" y="-963" as="sourcePoint" />
            <mxPoint x="2937" y="-1120" as="targetPoint" />
            <mxPoint as="offset" />
            <Array as="points">
              <mxPoint x="2950" y="-1041" />
              <mxPoint x="2810" y="-1041" />
            </Array>
          </mxGeometry>
        </mxCell>
        <mxCell id="SodjdnCDTOWis-OXcSEg-22" value="Creates" style="endArrow=open;endSize=12;dashed=1;html=1;rounded=0;entryX=0.5;entryY=1;entryDx=0;entryDy=0;" parent="1" edge="1">
          <mxGeometry x="-0.0909" y="14" width="160" relative="1" as="geometry">
            <mxPoint x="3090" y="-1040" as="sourcePoint" />
            <mxPoint x="2895" y="-1160" as="targetPoint" />
            <mxPoint as="offset" />
            <Array as="points">
              <mxPoint x="2960" y="-1041" />
            </Array>
          </mxGeometry>
        </mxCell>
        <mxCell id="SodjdnCDTOWis-OXcSEg-23" value="Creates" style="endArrow=open;endSize=12;dashed=1;html=1;rounded=0;entryX=0.5;entryY=0;entryDx=0;entryDy=0;exitX=0;exitY=0.5;exitDx=0;exitDy=0;" parent="1" target="SodjdnCDTOWis-OXcSEg-5" edge="1">
          <mxGeometry x="-0.0909" y="14" width="160" relative="1" as="geometry">
            <mxPoint x="3080" y="-1551" as="sourcePoint" />
            <mxPoint x="2735" y="-1670" as="targetPoint" />
            <mxPoint as="offset" />
            <Array as="points">
              <mxPoint x="2940" y="-1551" />
              <mxPoint x="2800" y="-1551" />
            </Array>
          </mxGeometry>
        </mxCell>
        <mxCell id="SodjdnCDTOWis-OXcSEg-24" value="Creates" style="endArrow=open;endSize=12;dashed=1;html=1;rounded=0;entryX=0.5;entryY=0;entryDx=0;entryDy=0;" parent="1" target="SodjdnCDTOWis-OXcSEg-6" edge="1">
          <mxGeometry x="-0.1819" y="11" width="160" relative="1" as="geometry">
            <mxPoint x="3080" y="-1550" as="sourcePoint" />
            <mxPoint x="2885" y="-1670" as="targetPoint" />
            <mxPoint as="offset" />
            <Array as="points">
              <mxPoint x="2950" y="-1551" />
            </Array>
          </mxGeometry>
        </mxCell>
        <mxCell id="SodjdnCDTOWis-OXcSEg-26" value="Extends" style="endArrow=block;endSize=16;endFill=0;html=1;rounded=0;entryX=0.451;entryY=1.013;entryDx=0;entryDy=0;exitX=0.5;exitY=0;exitDx=0;exitDy=0;entryPerimeter=0;" parent="1" target="SodjdnCDTOWis-OXcSEg-34" edge="1">
          <mxGeometry width="160" relative="1" as="geometry">
            <mxPoint x="3174.57" y="-1130" as="sourcePoint" />
            <mxPoint x="3175" y="-1290" as="targetPoint" />
          </mxGeometry>
        </mxCell>
        <mxCell id="SodjdnCDTOWis-OXcSEg-27" value="Extends" style="endArrow=block;endSize=16;endFill=0;html=1;rounded=0;entryX=0.451;entryY=0.021;entryDx=0;entryDy=0;entryPerimeter=0;" parent="1" target="SodjdnCDTOWis-OXcSEg-32" edge="1">
          <mxGeometry width="160" relative="1" as="geometry">
            <mxPoint x="3175" y="-1510" as="sourcePoint" />
            <mxPoint x="3175" y="-1340" as="targetPoint" />
          </mxGeometry>
        </mxCell>
        <mxCell id="SodjdnCDTOWis-OXcSEg-28" value="Application" style="swimlane;fontStyle=1;align=center;verticalAlign=top;childLayout=stackLayout;horizontal=1;startSize=26;horizontalStack=0;resizeParent=1;resizeParentMax=0;resizeLast=0;collapsible=1;marginBottom=0;whiteSpace=wrap;html=1;" parent="1" vertex="1">
          <mxGeometry x="3400" y="-1375" width="220" height="120" as="geometry" />
        </mxCell>
        <mxCell id="SodjdnCDTOWis-OXcSEg-29" value="-factory: UIElementFactory" style="text;strokeColor=none;fillColor=none;align=left;verticalAlign=top;spacingLeft=4;spacingRight=4;overflow=hidden;rotatable=0;points=[[0,0.5],[1,0.5]];portConstraint=eastwest;whiteSpace=wrap;html=1;" parent="SodjdnCDTOWis-OXcSEg-28" vertex="1">
          <mxGeometry y="26" width="220" height="26" as="geometry" />
        </mxCell>
        <mxCell id="SodjdnCDTOWis-OXcSEg-30" value="" style="line;strokeWidth=1;fillColor=none;align=left;verticalAlign=middle;spacingTop=-1;spacingLeft=3;spacingRight=3;rotatable=0;labelPosition=right;points=[];portConstraint=eastwest;strokeColor=inherit;" parent="SodjdnCDTOWis-OXcSEg-28" vertex="1">
          <mxGeometry y="52" width="220" height="8" as="geometry" />
        </mxCell>
        <mxCell id="SodjdnCDTOWis-OXcSEg-31" value="+ Application(UIElementFactory)&lt;br&gt;+renderUI()" style="text;strokeColor=none;fillColor=none;align=left;verticalAlign=top;spacingLeft=4;spacingRight=4;overflow=hidden;rotatable=0;points=[[0,0.5],[1,0.5]];portConstraint=eastwest;whiteSpace=wrap;html=1;" parent="SodjdnCDTOWis-OXcSEg-28" vertex="1">
          <mxGeometry y="60" width="220" height="60" as="geometry" />
        </mxCell>
        <mxCell id="SodjdnCDTOWis-OXcSEg-32" value="UIElementFactory&lt;br&gt;«interface»" style="swimlane;fontStyle=1;align=center;verticalAlign=top;childLayout=stackLayout;horizontal=1;startSize=50;horizontalStack=0;resizeParent=1;resizeParentMax=0;resizeLast=0;collapsible=1;marginBottom=0;whiteSpace=wrap;html=1;" parent="1" vertex="1">
          <mxGeometry x="3090" y="-1380" width="190" height="120" as="geometry" />
        </mxCell>
        <mxCell id="SodjdnCDTOWis-OXcSEg-33" value="" style="line;strokeWidth=1;fillColor=none;align=left;verticalAlign=middle;spacingTop=-1;spacingLeft=3;spacingRight=3;rotatable=0;labelPosition=right;points=[];portConstraint=eastwest;strokeColor=inherit;" parent="SodjdnCDTOWis-OXcSEg-32" vertex="1">
          <mxGeometry y="50" width="190" height="8" as="geometry" />
        </mxCell>
        <mxCell id="SodjdnCDTOWis-OXcSEg-34" value="+ createButton(): Button&lt;br&gt;+ createTextbox(): Textbox" style="text;strokeColor=none;fillColor=none;align=left;verticalAlign=top;spacingLeft=4;spacingRight=4;overflow=hidden;rotatable=0;points=[[0,0.5],[1,0.5]];portConstraint=eastwest;whiteSpace=wrap;html=1;" parent="SodjdnCDTOWis-OXcSEg-32" vertex="1">
          <mxGeometry y="58" width="190" height="62" as="geometry" />
        </mxCell>
        <mxCell id="SodjdnCDTOWis-OXcSEg-35" value="Uses" style="endArrow=open;endSize=12;dashed=1;html=1;rounded=0;entryX=1;entryY=0.354;entryDx=0;entryDy=0;entryPerimeter=0;" parent="1" target="SodjdnCDTOWis-OXcSEg-34" edge="1">
          <mxGeometry x="-0.0909" y="14" width="160" relative="1" as="geometry">
            <mxPoint x="3400" y="-1300" as="sourcePoint" />
            <mxPoint x="3330" y="-1350" as="targetPoint" />
            <mxPoint as="offset" />
            <Array as="points">
              <mxPoint x="3370" y="-1300" />
            </Array>
          </mxGeometry>
        </mxCell>
        <mxCell id="SodjdnCDTOWis-OXcSEg-36" value="Creates" style="endArrow=open;endSize=12;dashed=1;html=1;rounded=0;exitX=0.569;exitY=1.032;exitDx=0;exitDy=0;exitPerimeter=0;entryX=0.861;entryY=1.008;entryDx=0;entryDy=0;entryPerimeter=0;" parent="1" source="SodjdnCDTOWis-OXcSEg-31" target="SodjdnCDTOWis-OXcSEg-4" edge="1">
          <mxGeometry x="-0.0909" y="14" width="160" relative="1" as="geometry">
            <mxPoint x="3510" y="-1210" as="sourcePoint" />
            <mxPoint x="2940" y="-1280" as="targetPoint" />
            <mxPoint as="offset" />
            <Array as="points">
              <mxPoint x="3525" y="-1220" />
              <mxPoint x="2980" y="-1220" />
            </Array>
          </mxGeometry>
        </mxCell>
        <mxCell id="SodjdnCDTOWis-OXcSEg-37" value="Creates" style="endArrow=open;endSize=12;dashed=1;html=1;rounded=0;entryX=0.861;entryY=1.008;entryDx=0;entryDy=0;entryPerimeter=0;" parent="1" edge="1">
          <mxGeometry x="-0.0909" y="14" width="160" relative="1" as="geometry">
            <mxPoint x="3440" y="-1220" as="sourcePoint" />
            <mxPoint x="2780" y="-1290" as="targetPoint" />
            <mxPoint as="offset" />
            <Array as="points">
              <mxPoint x="3370" y="-1220" />
              <mxPoint x="2825" y="-1220" />
            </Array>
          </mxGeometry>
        </mxCell>
        <mxCell id="xlWYKSIaAv-n1kslFOv--1" value="Circle" style="swimlane;fontStyle=1;align=center;verticalAlign=top;childLayout=stackLayout;horizontal=1;startSize=50;horizontalStack=0;resizeParent=1;resizeParentMax=0;resizeLast=0;collapsible=1;marginBottom=0;whiteSpace=wrap;html=1;" parent="1" vertex="1">
          <mxGeometry x="1890" y="-2330" width="160" height="160" as="geometry" />
        </mxCell>
        <mxCell id="xlWYKSIaAv-n1kslFOv--2" value="+ x: int&lt;br&gt;+ y: int&lt;br&gt;+border: Border" style="text;strokeColor=none;fillColor=none;align=left;verticalAlign=top;spacingLeft=4;spacingRight=4;overflow=hidden;rotatable=0;points=[[0,0.5],[1,0.5]];portConstraint=eastwest;whiteSpace=wrap;html=1;" parent="xlWYKSIaAv-n1kslFOv--1" vertex="1">
          <mxGeometry y="50" width="160" height="64" as="geometry" />
        </mxCell>
        <mxCell id="xlWYKSIaAv-n1kslFOv--3" value="" style="line;strokeWidth=1;fillColor=none;align=left;verticalAlign=middle;spacingTop=-1;spacingLeft=3;spacingRight=3;rotatable=0;labelPosition=right;points=[];portConstraint=eastwest;strokeColor=inherit;" parent="xlWYKSIaAv-n1kslFOv--1" vertex="1">
          <mxGeometry y="114" width="160" height="8" as="geometry" />
        </mxCell>
        <mxCell id="xlWYKSIaAv-n1kslFOv--4" value="+ render():&amp;nbsp;&lt;br&gt;+clone()" style="text;strokeColor=none;fillColor=none;align=left;verticalAlign=top;spacingLeft=4;spacingRight=4;overflow=hidden;rotatable=0;points=[[0,0.5],[1,0.5]];portConstraint=eastwest;whiteSpace=wrap;html=1;" parent="xlWYKSIaAv-n1kslFOv--1" vertex="1">
          <mxGeometry y="122" width="160" height="38" as="geometry" />
        </mxCell>
        <mxCell id="xlWYKSIaAv-n1kslFOv--5" value="Rectangle" style="swimlane;fontStyle=1;align=center;verticalAlign=top;childLayout=stackLayout;horizontal=1;startSize=50;horizontalStack=0;resizeParent=1;resizeParentMax=0;resizeLast=0;collapsible=1;marginBottom=0;whiteSpace=wrap;html=1;" parent="1" vertex="1">
          <mxGeometry x="2140" y="-2330" width="160" height="160" as="geometry" />
        </mxCell>
        <mxCell id="xlWYKSIaAv-n1kslFOv--6" value="+ x: int&lt;br&gt;+ y: int&lt;br&gt;+border: Border" style="text;strokeColor=none;fillColor=none;align=left;verticalAlign=top;spacingLeft=4;spacingRight=4;overflow=hidden;rotatable=0;points=[[0,0.5],[1,0.5]];portConstraint=eastwest;whiteSpace=wrap;html=1;" parent="xlWYKSIaAv-n1kslFOv--5" vertex="1">
          <mxGeometry y="50" width="160" height="64" as="geometry" />
        </mxCell>
        <mxCell id="xlWYKSIaAv-n1kslFOv--7" value="" style="line;strokeWidth=1;fillColor=none;align=left;verticalAlign=middle;spacingTop=-1;spacingLeft=3;spacingRight=3;rotatable=0;labelPosition=right;points=[];portConstraint=eastwest;strokeColor=inherit;" parent="xlWYKSIaAv-n1kslFOv--5" vertex="1">
          <mxGeometry y="114" width="160" height="8" as="geometry" />
        </mxCell>
        <mxCell id="xlWYKSIaAv-n1kslFOv--8" value="+ render():&amp;nbsp;&lt;br&gt;+clone()" style="text;strokeColor=none;fillColor=none;align=left;verticalAlign=top;spacingLeft=4;spacingRight=4;overflow=hidden;rotatable=0;points=[[0,0.5],[1,0.5]];portConstraint=eastwest;whiteSpace=wrap;html=1;" parent="xlWYKSIaAv-n1kslFOv--5" vertex="1">
          <mxGeometry y="122" width="160" height="38" as="geometry" />
        </mxCell>
        <mxCell id="xlWYKSIaAv-n1kslFOv--13" value="Triangle" style="swimlane;fontStyle=1;align=center;verticalAlign=top;childLayout=stackLayout;horizontal=1;startSize=50;horizontalStack=0;resizeParent=1;resizeParentMax=0;resizeLast=0;collapsible=1;marginBottom=0;whiteSpace=wrap;html=1;" parent="1" vertex="1">
          <mxGeometry x="2370" y="-2320" width="160" height="160" as="geometry" />
        </mxCell>
        <mxCell id="xlWYKSIaAv-n1kslFOv--14" value="+ x: int&lt;br&gt;+ y: int&lt;br&gt;+border: Border" style="text;strokeColor=none;fillColor=none;align=left;verticalAlign=top;spacingLeft=4;spacingRight=4;overflow=hidden;rotatable=0;points=[[0,0.5],[1,0.5]];portConstraint=eastwest;whiteSpace=wrap;html=1;" parent="xlWYKSIaAv-n1kslFOv--13" vertex="1">
          <mxGeometry y="50" width="160" height="64" as="geometry" />
        </mxCell>
        <mxCell id="xlWYKSIaAv-n1kslFOv--15" value="" style="line;strokeWidth=1;fillColor=none;align=left;verticalAlign=middle;spacingTop=-1;spacingLeft=3;spacingRight=3;rotatable=0;labelPosition=right;points=[];portConstraint=eastwest;strokeColor=inherit;" parent="xlWYKSIaAv-n1kslFOv--13" vertex="1">
          <mxGeometry y="114" width="160" height="8" as="geometry" />
        </mxCell>
        <mxCell id="xlWYKSIaAv-n1kslFOv--16" value="+ render():&amp;nbsp;&lt;br&gt;+clone()" style="text;strokeColor=none;fillColor=none;align=left;verticalAlign=top;spacingLeft=4;spacingRight=4;overflow=hidden;rotatable=0;points=[[0,0.5],[1,0.5]];portConstraint=eastwest;whiteSpace=wrap;html=1;" parent="xlWYKSIaAv-n1kslFOv--13" vertex="1">
          <mxGeometry y="122" width="160" height="38" as="geometry" />
        </mxCell>
        <mxCell id="xlWYKSIaAv-n1kslFOv--21" value="Shape&lt;br&gt;&amp;lt;&amp;lt;abstract&amp;gt;&amp;gt;" style="swimlane;fontStyle=1;align=center;verticalAlign=top;childLayout=stackLayout;horizontal=1;startSize=50;horizontalStack=0;resizeParent=1;resizeParentMax=0;resizeLast=0;collapsible=1;marginBottom=0;whiteSpace=wrap;html=1;" parent="1" vertex="1">
          <mxGeometry x="2150" y="-2700" width="160" height="160" as="geometry" />
        </mxCell>
        <mxCell id="xlWYKSIaAv-n1kslFOv--22" value="+ x: int&lt;br&gt;+ y: int&lt;br&gt;+border: Border" style="text;strokeColor=none;fillColor=none;align=left;verticalAlign=top;spacingLeft=4;spacingRight=4;overflow=hidden;rotatable=0;points=[[0,0.5],[1,0.5]];portConstraint=eastwest;whiteSpace=wrap;html=1;" parent="xlWYKSIaAv-n1kslFOv--21" vertex="1">
          <mxGeometry y="50" width="160" height="64" as="geometry" />
        </mxCell>
        <mxCell id="xlWYKSIaAv-n1kslFOv--23" value="" style="line;strokeWidth=1;fillColor=none;align=left;verticalAlign=middle;spacingTop=-1;spacingLeft=3;spacingRight=3;rotatable=0;labelPosition=right;points=[];portConstraint=eastwest;strokeColor=inherit;" parent="xlWYKSIaAv-n1kslFOv--21" vertex="1">
          <mxGeometry y="114" width="160" height="8" as="geometry" />
        </mxCell>
        <mxCell id="xlWYKSIaAv-n1kslFOv--24" value="+ render():&amp;nbsp;&lt;br&gt;+clone()" style="text;strokeColor=none;fillColor=none;align=left;verticalAlign=top;spacingLeft=4;spacingRight=4;overflow=hidden;rotatable=0;points=[[0,0.5],[1,0.5]];portConstraint=eastwest;whiteSpace=wrap;html=1;" parent="xlWYKSIaAv-n1kslFOv--21" vertex="1">
          <mxGeometry y="122" width="160" height="38" as="geometry" />
        </mxCell>
        <mxCell id="xlWYKSIaAv-n1kslFOv--25" value="" style="endArrow=block;endSize=16;endFill=0;html=1;rounded=0;exitX=0.5;exitY=0;exitDx=0;exitDy=0;entryX=0.481;entryY=1.044;entryDx=0;entryDy=0;entryPerimeter=0;" parent="1" target="xlWYKSIaAv-n1kslFOv--24" edge="1">
          <mxGeometry width="160" relative="1" as="geometry">
            <mxPoint x="2450" y="-2320" as="sourcePoint" />
            <mxPoint x="2230" y="-2480" as="targetPoint" />
          </mxGeometry>
        </mxCell>
        <mxCell id="xlWYKSIaAv-n1kslFOv--26" value="Dziedziczenie" style="edgeLabel;html=1;align=center;verticalAlign=middle;resizable=0;points=[];" parent="xlWYKSIaAv-n1kslFOv--25" vertex="1" connectable="0">
          <mxGeometry x="0.2625" y="-1" relative="1" as="geometry">
            <mxPoint x="-16" y="-12" as="offset" />
          </mxGeometry>
        </mxCell>
        <mxCell id="xlWYKSIaAv-n1kslFOv--27" value="" style="endArrow=block;endSize=16;endFill=0;html=1;rounded=0;exitX=0.5;exitY=0;exitDx=0;exitDy=0;entryX=0.467;entryY=1.086;entryDx=0;entryDy=0;entryPerimeter=0;" parent="1" target="xlWYKSIaAv-n1kslFOv--24" edge="1">
          <mxGeometry width="160" relative="1" as="geometry">
            <mxPoint x="1970" y="-2330" as="sourcePoint" />
            <mxPoint x="1777" y="-2538" as="targetPoint" />
          </mxGeometry>
        </mxCell>
        <mxCell id="xlWYKSIaAv-n1kslFOv--28" value="Dziedziczenie" style="edgeLabel;html=1;align=center;verticalAlign=middle;resizable=0;points=[];" parent="xlWYKSIaAv-n1kslFOv--27" vertex="1" connectable="0">
          <mxGeometry x="0.2625" y="-1" relative="1" as="geometry">
            <mxPoint x="-16" y="-12" as="offset" />
          </mxGeometry>
        </mxCell>
        <mxCell id="xlWYKSIaAv-n1kslFOv--29" value="" style="endArrow=block;endSize=16;endFill=0;html=1;rounded=0;exitX=0.5;exitY=0;exitDx=0;exitDy=0;entryX=0.494;entryY=1.086;entryDx=0;entryDy=0;entryPerimeter=0;" parent="1" target="xlWYKSIaAv-n1kslFOv--24" edge="1">
          <mxGeometry width="160" relative="1" as="geometry">
            <mxPoint x="2223" y="-2330" as="sourcePoint" />
            <mxPoint x="2030" y="-2538" as="targetPoint" />
          </mxGeometry>
        </mxCell>
        <mxCell id="xlWYKSIaAv-n1kslFOv--30" value="Dziedziczenie" style="edgeLabel;html=1;align=center;verticalAlign=middle;resizable=0;points=[];" parent="xlWYKSIaAv-n1kslFOv--29" vertex="1" connectable="0">
          <mxGeometry x="0.2625" y="-1" relative="1" as="geometry">
            <mxPoint x="-16" y="-12" as="offset" />
          </mxGeometry>
        </mxCell>
        <mxCell id="xlWYKSIaAv-n1kslFOv--32" value="Client" style="html=1;whiteSpace=wrap;rounded=1;" parent="1" vertex="1">
          <mxGeometry x="2785" y="-2470" width="110" height="50" as="geometry" />
        </mxCell>
        <mxCell id="xlWYKSIaAv-n1kslFOv--33" value="1" style="endArrow=open;html=1;endSize=12;startArrow=none;startSize=14;startFill=0;edgeStyle=orthogonalEdgeStyle;align=left;verticalAlign=bottom;rounded=0;dashed=1;" parent="1" target="xlWYKSIaAv-n1kslFOv--31" edge="1">
          <mxGeometry x="-1" y="3" relative="1" as="geometry">
            <mxPoint x="2784.92" y="-2450.04" as="sourcePoint" />
            <mxPoint x="2514.92" y="-2440.04" as="targetPoint" />
            <Array as="points">
              <mxPoint x="2785" y="-2440" />
            </Array>
          </mxGeometry>
        </mxCell>
        <mxCell id="xlWYKSIaAv-n1kslFOv--34" value="Clones" style="edgeLabel;html=1;align=center;verticalAlign=middle;resizable=0;points=[];" parent="xlWYKSIaAv-n1kslFOv--33" vertex="1" connectable="0">
          <mxGeometry x="0.11" y="-1" relative="1" as="geometry">
            <mxPoint as="offset" />
          </mxGeometry>
        </mxCell>
        <mxCell id="xlWYKSIaAv-n1kslFOv--35" value="Configuration" style="swimlane;fontStyle=1;align=center;verticalAlign=top;childLayout=stackLayout;horizontal=1;startSize=50;horizontalStack=0;resizeParent=1;resizeParentMax=0;resizeLast=0;collapsible=1;marginBottom=0;whiteSpace=wrap;html=1;" parent="1" vertex="1">
          <mxGeometry x="3260" y="-2460" width="190" height="160" as="geometry" />
        </mxCell>
        <mxCell id="xlWYKSIaAv-n1kslFOv--36" value="-instance: Configuration" style="text;strokeColor=none;fillColor=none;align=left;verticalAlign=top;spacingLeft=4;spacingRight=4;overflow=hidden;rotatable=0;points=[[0,0.5],[1,0.5]];portConstraint=eastwest;whiteSpace=wrap;html=1;" parent="xlWYKSIaAv-n1kslFOv--35" vertex="1">
          <mxGeometry y="50" width="190" height="64" as="geometry" />
        </mxCell>
        <mxCell id="xlWYKSIaAv-n1kslFOv--37" value="" style="line;strokeWidth=1;fillColor=none;align=left;verticalAlign=middle;spacingTop=-1;spacingLeft=3;spacingRight=3;rotatable=0;labelPosition=right;points=[];portConstraint=eastwest;strokeColor=inherit;" parent="xlWYKSIaAv-n1kslFOv--35" vertex="1">
          <mxGeometry y="114" width="190" height="8" as="geometry" />
        </mxCell>
        <mxCell id="xlWYKSIaAv-n1kslFOv--38" value="- Configuration()&lt;br&gt;+ getInstance(): Configuration" style="text;strokeColor=none;fillColor=none;align=left;verticalAlign=top;spacingLeft=4;spacingRight=4;overflow=hidden;rotatable=0;points=[[0,0.5],[1,0.5]];portConstraint=eastwest;whiteSpace=wrap;html=1;" parent="xlWYKSIaAv-n1kslFOv--35" vertex="1">
          <mxGeometry y="122" width="190" height="38" as="geometry" />
        </mxCell>
        <mxCell id="xlWYKSIaAv-n1kslFOv--39" value="Client" style="html=1;whiteSpace=wrap;rounded=1;" parent="1" vertex="1">
          <mxGeometry x="3575" y="-2400" width="110" height="50" as="geometry" />
        </mxCell>
        <mxCell id="xlWYKSIaAv-n1kslFOv--40" value="1" style="endArrow=open;html=1;endSize=12;startArrow=none;startSize=14;startFill=0;edgeStyle=orthogonalEdgeStyle;align=left;verticalAlign=bottom;rounded=0;dashed=1;" parent="1" edge="1">
          <mxGeometry x="-1" y="3" relative="1" as="geometry">
            <mxPoint x="3574.92" y="-2380.04" as="sourcePoint" />
            <mxPoint x="3450" y="-2370" as="targetPoint" />
            <Array as="points">
              <mxPoint x="3575" y="-2370" />
            </Array>
          </mxGeometry>
        </mxCell>
        <mxCell id="xlWYKSIaAv-n1kslFOv--41" value="Clones" style="edgeLabel;html=1;align=center;verticalAlign=middle;resizable=0;points=[];" parent="xlWYKSIaAv-n1kslFOv--40" vertex="1" connectable="0">
          <mxGeometry x="0.11" y="-1" relative="1" as="geometry">
            <mxPoint as="offset" />
          </mxGeometry>
        </mxCell>
        <mxCell id="qKg8dECpOACaVMmU6h_2-1" value="&amp;lt;&amp;lt;interface&amp;gt;&amp;gt;&lt;br&gt;IRouteStrategy" style="swimlane;fontStyle=0;childLayout=stackLayout;horizontal=1;startSize=40;fillColor=none;horizontalStack=0;resizeParent=1;resizeParentMax=0;resizeLast=0;collapsible=1;marginBottom=0;whiteSpace=wrap;html=1;" parent="1" vertex="1">
          <mxGeometry x="1180" y="-2700" width="230" height="64" as="geometry" />
        </mxCell>
        <mxCell id="qKg8dECpOACaVMmU6h_2-2" value="+ createRoute(Cooridnate, Cooridnate)" style="text;strokeColor=none;fillColor=none;align=left;verticalAlign=top;spacingLeft=4;spacingRight=4;overflow=hidden;rotatable=0;points=[[0,0.5],[1,0.5]];portConstraint=eastwest;whiteSpace=wrap;html=1;" parent="qKg8dECpOACaVMmU6h_2-1" vertex="1">
          <mxGeometry y="40" width="230" height="24" as="geometry" />
        </mxCell>
        <mxCell id="qKg8dECpOACaVMmU6h_2-5" value="Map" style="swimlane;fontStyle=1;align=center;verticalAlign=top;childLayout=stackLayout;horizontal=1;startSize=26;horizontalStack=0;resizeParent=1;resizeParentMax=0;resizeLast=0;collapsible=1;marginBottom=0;whiteSpace=wrap;html=1;" parent="1" vertex="1">
          <mxGeometry x="770" y="-2723" width="230" height="110" as="geometry" />
        </mxCell>
        <mxCell id="qKg8dECpOACaVMmU6h_2-6" value="- routeStrategy: IRouteStrategy" style="text;strokeColor=none;fillColor=none;align=left;verticalAlign=top;spacingLeft=4;spacingRight=4;overflow=hidden;rotatable=0;points=[[0,0.5],[1,0.5]];portConstraint=eastwest;whiteSpace=wrap;html=1;" parent="qKg8dECpOACaVMmU6h_2-5" vertex="1">
          <mxGeometry y="26" width="230" height="34" as="geometry" />
        </mxCell>
        <mxCell id="qKg8dECpOACaVMmU6h_2-7" value="" style="line;strokeWidth=1;fillColor=none;align=left;verticalAlign=middle;spacingTop=-1;spacingLeft=3;spacingRight=3;rotatable=0;labelPosition=right;points=[];portConstraint=eastwest;strokeColor=inherit;" parent="qKg8dECpOACaVMmU6h_2-5" vertex="1">
          <mxGeometry y="60" width="230" height="8" as="geometry" />
        </mxCell>
        <mxCell id="qKg8dECpOACaVMmU6h_2-8" value="+ createRoute(Cooridnate, Cooridnate)" style="text;strokeColor=none;fillColor=none;align=left;verticalAlign=top;spacingLeft=4;spacingRight=4;overflow=hidden;rotatable=0;points=[[0,0.5],[1,0.5]];portConstraint=eastwest;whiteSpace=wrap;html=1;" parent="qKg8dECpOACaVMmU6h_2-5" vertex="1">
          <mxGeometry y="68" width="230" height="42" as="geometry" />
        </mxCell>
        <mxCell id="qKg8dECpOACaVMmU6h_2-9" value="1" style="endArrow=open;html=1;endSize=12;startArrow=diamondThin;startSize=14;startFill=0;edgeStyle=orthogonalEdgeStyle;align=left;verticalAlign=bottom;rounded=0;dashed=1;" parent="1" target="qKg8dECpOACaVMmU6h_2-1" edge="1">
          <mxGeometry x="-1" y="3" relative="1" as="geometry">
            <mxPoint x="1000" y="-2668.33" as="sourcePoint" />
            <mxPoint x="1090" y="-2670" as="targetPoint" />
            <Array as="points" />
          </mxGeometry>
        </mxCell>
        <mxCell id="qKg8dECpOACaVMmU6h_2-11" value="BikeStategy" style="html=1;whiteSpace=wrap;" parent="1" vertex="1">
          <mxGeometry x="1240" y="-2520" width="110" height="50" as="geometry" />
        </mxCell>
        <mxCell id="qKg8dECpOACaVMmU6h_2-12" value="CarStategy" style="html=1;whiteSpace=wrap;" parent="1" vertex="1">
          <mxGeometry x="1080" y="-2520" width="110" height="50" as="geometry" />
        </mxCell>
        <mxCell id="qKg8dECpOACaVMmU6h_2-13" value="WalkStategy" style="html=1;whiteSpace=wrap;" parent="1" vertex="1">
          <mxGeometry x="1400" y="-2520" width="110" height="50" as="geometry" />
        </mxCell>
        <mxCell id="qKg8dECpOACaVMmU6h_2-14" value="" style="endArrow=block;dashed=1;endFill=0;endSize=12;html=1;rounded=0;exitX=0.5;exitY=0;exitDx=0;exitDy=0;entryX=0.13;entryY=1.028;entryDx=0;entryDy=0;entryPerimeter=0;" parent="1" source="qKg8dECpOACaVMmU6h_2-12" target="qKg8dECpOACaVMmU6h_2-2" edge="1">
          <mxGeometry width="160" relative="1" as="geometry">
            <mxPoint x="1180" y="-2590" as="sourcePoint" />
            <mxPoint x="1340" y="-2590" as="targetPoint" />
            <Array as="points">
              <mxPoint x="1135" y="-2580" />
            </Array>
          </mxGeometry>
        </mxCell>
        <mxCell id="qKg8dECpOACaVMmU6h_2-16" value="" style="endArrow=block;dashed=1;endFill=0;endSize=12;html=1;rounded=0;exitX=0.5;exitY=0;exitDx=0;exitDy=0;entryX=0.844;entryY=0.948;entryDx=0;entryDy=0;entryPerimeter=0;" parent="1" target="qKg8dECpOACaVMmU6h_2-2" edge="1">
          <mxGeometry width="160" relative="1" as="geometry">
            <mxPoint x="1450" y="-2520" as="sourcePoint" />
            <mxPoint x="1616" y="-2633" as="targetPoint" />
            <Array as="points">
              <mxPoint x="1450" y="-2570" />
            </Array>
          </mxGeometry>
        </mxCell>
        <mxCell id="qKg8dECpOACaVMmU6h_2-18" value="" style="endArrow=block;dashed=1;endFill=0;endSize=12;html=1;rounded=0;exitX=0.5;exitY=0;exitDx=0;exitDy=0;entryX=0.538;entryY=0.929;entryDx=0;entryDy=0;entryPerimeter=0;" parent="1" target="qKg8dECpOACaVMmU6h_2-2" edge="1">
          <mxGeometry width="160" relative="1" as="geometry">
            <mxPoint x="1290" y="-2520" as="sourcePoint" />
            <mxPoint x="1456" y="-2633" as="targetPoint" />
            <Array as="points">
              <mxPoint x="1290" y="-2580" />
            </Array>
          </mxGeometry>
        </mxCell>
        <mxCell id="W24ZyktB6x-WuUqiU-bX-1" value="&amp;lt;&amp;lt;interface&amp;gt;&amp;gt;&lt;br&gt;ISubscriber" style="swimlane;fontStyle=0;childLayout=stackLayout;horizontal=1;startSize=40;fillColor=none;horizontalStack=0;resizeParent=1;resizeParentMax=0;resizeLast=0;collapsible=1;marginBottom=0;whiteSpace=wrap;html=1;" parent="1" vertex="1">
          <mxGeometry x="-210" y="-2386" width="230" height="64" as="geometry" />
        </mxCell>
        <mxCell id="W24ZyktB6x-WuUqiU-bX-2" value="+ update (context)" style="text;strokeColor=none;fillColor=none;align=left;verticalAlign=top;spacingLeft=4;spacingRight=4;overflow=hidden;rotatable=0;points=[[0,0.5],[1,0.5]];portConstraint=eastwest;whiteSpace=wrap;html=1;" parent="W24ZyktB6x-WuUqiU-bX-1" vertex="1">
          <mxGeometry y="40" width="230" height="24" as="geometry" />
        </mxCell>
        <mxCell id="W24ZyktB6x-WuUqiU-bX-3" value="Subscriber" style="swimlane;fontStyle=1;align=center;verticalAlign=top;childLayout=stackLayout;horizontal=1;startSize=26;horizontalStack=0;resizeParent=1;resizeParentMax=0;resizeLast=0;collapsible=1;marginBottom=0;whiteSpace=wrap;html=1;" parent="1" vertex="1">
          <mxGeometry x="-200" y="-2636" width="230" height="110" as="geometry" />
        </mxCell>
        <mxCell id="W24ZyktB6x-WuUqiU-bX-4" value="..." style="text;strokeColor=none;fillColor=none;align=left;verticalAlign=top;spacingLeft=4;spacingRight=4;overflow=hidden;rotatable=0;points=[[0,0.5],[1,0.5]];portConstraint=eastwest;whiteSpace=wrap;html=1;" parent="W24ZyktB6x-WuUqiU-bX-3" vertex="1">
          <mxGeometry y="26" width="230" height="34" as="geometry" />
        </mxCell>
        <mxCell id="W24ZyktB6x-WuUqiU-bX-5" value="" style="line;strokeWidth=1;fillColor=none;align=left;verticalAlign=middle;spacingTop=-1;spacingLeft=3;spacingRight=3;rotatable=0;labelPosition=right;points=[];portConstraint=eastwest;strokeColor=inherit;" parent="W24ZyktB6x-WuUqiU-bX-3" vertex="1">
          <mxGeometry y="60" width="230" height="8" as="geometry" />
        </mxCell>
        <mxCell id="W24ZyktB6x-WuUqiU-bX-6" value="+update(context)" style="text;strokeColor=none;fillColor=none;align=left;verticalAlign=top;spacingLeft=4;spacingRight=4;overflow=hidden;rotatable=0;points=[[0,0.5],[1,0.5]];portConstraint=eastwest;whiteSpace=wrap;html=1;" parent="W24ZyktB6x-WuUqiU-bX-3" vertex="1">
          <mxGeometry y="68" width="230" height="42" as="geometry" />
        </mxCell>
        <mxCell id="W24ZyktB6x-WuUqiU-bX-7" value="" style="endArrow=block;dashed=1;endFill=0;endSize=12;html=1;rounded=0;entryX=0.528;entryY=-0.021;entryDx=0;entryDy=0;entryPerimeter=0;" parent="1" target="W24ZyktB6x-WuUqiU-bX-1" edge="1">
          <mxGeometry width="160" relative="1" as="geometry">
            <mxPoint x="-85" y="-2526" as="sourcePoint" />
            <mxPoint y="-2485.5" as="targetPoint" />
          </mxGeometry>
        </mxCell>
        <mxCell id="W24ZyktB6x-WuUqiU-bX-8" value="Implementacja" style="edgeLabel;html=1;align=center;verticalAlign=middle;resizable=0;points=[];" parent="W24ZyktB6x-WuUqiU-bX-7" vertex="1" connectable="0">
          <mxGeometry x="0.3625" y="2" relative="1" as="geometry">
            <mxPoint x="-24" y="-13" as="offset" />
          </mxGeometry>
        </mxCell>
        <mxCell id="W24ZyktB6x-WuUqiU-bX-9" value="Publisher" style="swimlane;fontStyle=1;align=center;verticalAlign=top;childLayout=stackLayout;horizontal=1;startSize=26;horizontalStack=0;resizeParent=1;resizeParentMax=0;resizeLast=0;collapsible=1;marginBottom=0;whiteSpace=wrap;html=1;" parent="1" vertex="1">
          <mxGeometry x="160" y="-2416" width="260" height="130" as="geometry" />
        </mxCell>
        <mxCell id="W24ZyktB6x-WuUqiU-bX-10" value="+ subscribers ISubscribe[]" style="text;strokeColor=none;fillColor=none;align=left;verticalAlign=top;spacingLeft=4;spacingRight=4;overflow=hidden;rotatable=0;points=[[0,0.5],[1,0.5]];portConstraint=eastwest;whiteSpace=wrap;html=1;" parent="W24ZyktB6x-WuUqiU-bX-9" vertex="1">
          <mxGeometry y="26" width="260" height="34" as="geometry" />
        </mxCell>
        <mxCell id="W24ZyktB6x-WuUqiU-bX-11" value="" style="line;strokeWidth=1;fillColor=none;align=left;verticalAlign=middle;spacingTop=-1;spacingLeft=3;spacingRight=3;rotatable=0;labelPosition=right;points=[];portConstraint=eastwest;strokeColor=inherit;" parent="W24ZyktB6x-WuUqiU-bX-9" vertex="1">
          <mxGeometry y="60" width="260" height="8" as="geometry" />
        </mxCell>
        <mxCell id="W24ZyktB6x-WuUqiU-bX-12" value="+ notify (context)&lt;br&gt;+ subscribe (ISubscriber)&lt;br&gt;+unsubscribe(ISubscriber)" style="text;strokeColor=none;fillColor=none;align=left;verticalAlign=top;spacingLeft=4;spacingRight=4;overflow=hidden;rotatable=0;points=[[0,0.5],[1,0.5]];portConstraint=eastwest;whiteSpace=wrap;html=1;" parent="W24ZyktB6x-WuUqiU-bX-9" vertex="1">
          <mxGeometry y="68" width="260" height="62" as="geometry" />
        </mxCell>
        <mxCell id="W24ZyktB6x-WuUqiU-bX-14" value="1" style="endArrow=open;html=1;endSize=12;startArrow=diamondThin;startSize=14;startFill=0;edgeStyle=orthogonalEdgeStyle;align=left;verticalAlign=bottom;rounded=0;dashed=1;" parent="1" edge="1">
          <mxGeometry x="-1" y="3" relative="1" as="geometry">
            <mxPoint x="420" y="-1094" as="sourcePoint" />
            <mxPoint x="580" y="-1094.5" as="targetPoint" />
            <Array as="points">
              <mxPoint x="500" y="-1093" />
              <mxPoint x="500" y="-1095" />
            </Array>
          </mxGeometry>
        </mxCell>
        <mxCell id="W24ZyktB6x-WuUqiU-bX-15" value="Agregacja&lt;br&gt;Shape zawiera Side&lt;br&gt;ale side mogą być też gdzie idziej" style="edgeLabel;html=1;align=center;verticalAlign=middle;resizable=0;points=[];" parent="W24ZyktB6x-WuUqiU-bX-14" vertex="1" connectable="0">
          <mxGeometry x="-0.0875" y="3" relative="1" as="geometry">
            <mxPoint x="-353" y="3" as="offset" />
          </mxGeometry>
        </mxCell>
        <mxCell id="W24ZyktB6x-WuUqiU-bX-16" value="Client" style="html=1;whiteSpace=wrap;rounded=1;" parent="1" vertex="1">
          <mxGeometry x="120" y="-2618" width="110" height="50" as="geometry" />
        </mxCell>
        <mxCell id="W24ZyktB6x-WuUqiU-bX-18" value="Use" style="endArrow=open;endSize=12;dashed=1;html=1;rounded=0;exitX=0;exitY=0.5;exitDx=0;exitDy=0;entryX=1;entryY=0.5;entryDx=0;entryDy=0;" parent="1" source="W24ZyktB6x-WuUqiU-bX-16" target="W24ZyktB6x-WuUqiU-bX-4" edge="1">
          <mxGeometry width="160" relative="1" as="geometry">
            <mxPoint x="60" y="-2600" as="sourcePoint" />
            <mxPoint x="70" y="-2570" as="targetPoint" />
          </mxGeometry>
        </mxCell>
        <mxCell id="W24ZyktB6x-WuUqiU-bX-19" value="Use" style="endArrow=open;endSize=12;dashed=1;html=1;rounded=0;exitX=0.5;exitY=1;exitDx=0;exitDy=0;entryX=0.5;entryY=0;entryDx=0;entryDy=0;" parent="1" source="WbankNYuo_xCJNKSE_gl-1" target="W24ZyktB6x-WuUqiU-bX-9" edge="1">
          <mxGeometry width="160" relative="1" as="geometry">
            <mxPoint x="300" y="-2568" as="sourcePoint" />
            <mxPoint x="310" y="-2420" as="targetPoint" />
          </mxGeometry>
        </mxCell>
        <mxCell id="WbankNYuo_xCJNKSE_gl-1" value="Client" style="html=1;whiteSpace=wrap;rounded=1;" parent="1" vertex="1">
          <mxGeometry x="235" y="-2550" width="110" height="50" as="geometry" />
        </mxCell>
        <mxCell id="WbankNYuo_xCJNKSE_gl-6" value="Component" style="swimlane;fontStyle=1;align=center;verticalAlign=top;childLayout=stackLayout;horizontal=1;startSize=26;horizontalStack=0;resizeParent=1;resizeParentMax=0;resizeLast=0;collapsible=1;marginBottom=0;whiteSpace=wrap;html=1;" parent="1" vertex="1">
          <mxGeometry x="590" y="-1950" width="160" height="86" as="geometry" />
        </mxCell>
        <mxCell id="WbankNYuo_xCJNKSE_gl-7" value="# mediator: IMediator" style="text;strokeColor=none;fillColor=none;align=left;verticalAlign=top;spacingLeft=4;spacingRight=4;overflow=hidden;rotatable=0;points=[[0,0.5],[1,0.5]];portConstraint=eastwest;whiteSpace=wrap;html=1;" parent="WbankNYuo_xCJNKSE_gl-6" vertex="1">
          <mxGeometry y="26" width="160" height="26" as="geometry" />
        </mxCell>
        <mxCell id="WbankNYuo_xCJNKSE_gl-8" value="" style="line;strokeWidth=1;fillColor=none;align=left;verticalAlign=middle;spacingTop=-1;spacingLeft=3;spacingRight=3;rotatable=0;labelPosition=right;points=[];portConstraint=eastwest;strokeColor=inherit;" parent="WbankNYuo_xCJNKSE_gl-6" vertex="1">
          <mxGeometry y="52" width="160" height="8" as="geometry" />
        </mxCell>
        <mxCell id="WbankNYuo_xCJNKSE_gl-9" value="+ setMediator(IMediator)" style="text;strokeColor=none;fillColor=none;align=left;verticalAlign=top;spacingLeft=4;spacingRight=4;overflow=hidden;rotatable=0;points=[[0,0.5],[1,0.5]];portConstraint=eastwest;whiteSpace=wrap;html=1;" parent="WbankNYuo_xCJNKSE_gl-6" vertex="1">
          <mxGeometry y="60" width="160" height="26" as="geometry" />
        </mxCell>
        <mxCell id="WbankNYuo_xCJNKSE_gl-10" value="Input" style="html=1;whiteSpace=wrap;" parent="1" vertex="1">
          <mxGeometry x="460" y="-1755" width="110" height="50" as="geometry" />
        </mxCell>
        <mxCell id="WbankNYuo_xCJNKSE_gl-11" value="Checkbox" style="html=1;whiteSpace=wrap;" parent="1" vertex="1">
          <mxGeometry x="615" y="-1755" width="110" height="50" as="geometry" />
        </mxCell>
        <mxCell id="WbankNYuo_xCJNKSE_gl-12" value="Button" style="html=1;whiteSpace=wrap;" parent="1" vertex="1">
          <mxGeometry x="760" y="-1755" width="110" height="50" as="geometry" />
        </mxCell>
        <mxCell id="WbankNYuo_xCJNKSE_gl-13" value="" style="endArrow=block;endSize=16;endFill=0;html=1;rounded=0;exitX=0.5;exitY=0;exitDx=0;exitDy=0;entryX=0.5;entryY=0.984;entryDx=0;entryDy=0;entryPerimeter=0;" parent="1" source="WbankNYuo_xCJNKSE_gl-10" target="WbankNYuo_xCJNKSE_gl-9" edge="1">
          <mxGeometry width="160" relative="1" as="geometry">
            <mxPoint x="500" y="-1827.5" as="sourcePoint" />
            <mxPoint x="660" y="-1827.5" as="targetPoint" />
            <Array as="points">
              <mxPoint x="515" y="-1800" />
              <mxPoint x="670" y="-1800" />
            </Array>
          </mxGeometry>
        </mxCell>
        <mxCell id="WbankNYuo_xCJNKSE_gl-17" value="" style="endArrow=none;html=1;rounded=0;exitX=0.5;exitY=0;exitDx=0;exitDy=0;" parent="1" source="WbankNYuo_xCJNKSE_gl-11" edge="1">
          <mxGeometry width="50" height="50" relative="1" as="geometry">
            <mxPoint x="650" y="-1770" as="sourcePoint" />
            <mxPoint x="670" y="-1800" as="targetPoint" />
          </mxGeometry>
        </mxCell>
        <mxCell id="WbankNYuo_xCJNKSE_gl-18" value="" style="endArrow=none;html=1;rounded=0;exitX=0.5;exitY=0;exitDx=0;exitDy=0;" parent="1" source="WbankNYuo_xCJNKSE_gl-12" edge="1">
          <mxGeometry width="50" height="50" relative="1" as="geometry">
            <mxPoint x="760" y="-1760" as="sourcePoint" />
            <mxPoint x="670" y="-1800" as="targetPoint" />
            <Array as="points">
              <mxPoint x="815" y="-1800" />
            </Array>
          </mxGeometry>
        </mxCell>
        <mxCell id="WbankNYuo_xCJNKSE_gl-19" value="&amp;lt;&amp;lt;interface&amp;gt;&amp;gt;&lt;br&gt;IMediator" style="swimlane;fontStyle=0;childLayout=stackLayout;horizontal=1;startSize=26;fillColor=none;horizontalStack=0;resizeParent=1;resizeParentMax=0;resizeLast=0;collapsible=1;marginBottom=0;whiteSpace=wrap;html=1;" parent="1" vertex="1">
          <mxGeometry x="1010" y="-1960" width="270" height="70" as="geometry" />
        </mxCell>
        <mxCell id="WbankNYuo_xCJNKSE_gl-20" value="+notify (sender: Component. event: string)" style="text;strokeColor=none;fillColor=none;align=left;verticalAlign=top;spacingLeft=4;spacingRight=4;overflow=hidden;rotatable=0;points=[[0,0.5],[1,0.5]];portConstraint=eastwest;whiteSpace=wrap;html=1;" parent="WbankNYuo_xCJNKSE_gl-19" vertex="1">
          <mxGeometry y="26" width="270" height="44" as="geometry" />
        </mxCell>
        <mxCell id="WbankNYuo_xCJNKSE_gl-23" value="RegistryClientView" style="swimlane;fontStyle=1;align=center;verticalAlign=top;childLayout=stackLayout;horizontal=1;startSize=26;horizontalStack=0;resizeParent=1;resizeParentMax=0;resizeLast=0;collapsible=1;marginBottom=0;whiteSpace=wrap;html=1;" parent="1" vertex="1">
          <mxGeometry x="1030" y="-1830" width="260" height="104" as="geometry" />
        </mxCell>
        <mxCell id="WbankNYuo_xCJNKSE_gl-24" value="+ clientType:Checkbox&lt;br&gt;+ submitButton: Button" style="text;strokeColor=none;fillColor=none;align=left;verticalAlign=top;spacingLeft=4;spacingRight=4;overflow=hidden;rotatable=0;points=[[0,0.5],[1,0.5]];portConstraint=eastwest;whiteSpace=wrap;html=1;" parent="WbankNYuo_xCJNKSE_gl-23" vertex="1">
          <mxGeometry y="26" width="260" height="44" as="geometry" />
        </mxCell>
        <mxCell id="WbankNYuo_xCJNKSE_gl-25" value="" style="line;strokeWidth=1;fillColor=none;align=left;verticalAlign=middle;spacingTop=-1;spacingLeft=3;spacingRight=3;rotatable=0;labelPosition=right;points=[];portConstraint=eastwest;strokeColor=inherit;" parent="WbankNYuo_xCJNKSE_gl-23" vertex="1">
          <mxGeometry y="70" width="260" height="8" as="geometry" />
        </mxCell>
        <mxCell id="WbankNYuo_xCJNKSE_gl-26" value="+notify (sender: Component. event: string)" style="text;strokeColor=none;fillColor=none;align=left;verticalAlign=top;spacingLeft=4;spacingRight=4;overflow=hidden;rotatable=0;points=[[0,0.5],[1,0.5]];portConstraint=eastwest;whiteSpace=wrap;html=1;" parent="WbankNYuo_xCJNKSE_gl-23" vertex="1">
          <mxGeometry y="78" width="260" height="26" as="geometry" />
        </mxCell>
        <mxCell id="WbankNYuo_xCJNKSE_gl-27" value="" style="endArrow=block;dashed=1;endFill=0;endSize=12;html=1;rounded=0;exitX=0.5;exitY=0;exitDx=0;exitDy=0;entryX=0.557;entryY=1.016;entryDx=0;entryDy=0;entryPerimeter=0;" parent="1" source="WbankNYuo_xCJNKSE_gl-23" target="WbankNYuo_xCJNKSE_gl-20" edge="1">
          <mxGeometry width="160" relative="1" as="geometry">
            <mxPoint x="1162" y="-1840" as="sourcePoint" />
            <mxPoint x="1160" y="-1870" as="targetPoint" />
          </mxGeometry>
        </mxCell>
        <mxCell id="WbankNYuo_xCJNKSE_gl-29" value="" style="endArrow=classic;startArrow=classic;html=1;rounded=0;exitX=1;exitY=0.5;exitDx=0;exitDy=0;entryX=0;entryY=0.5;entryDx=0;entryDy=0;" parent="1" source="WbankNYuo_xCJNKSE_gl-7" target="WbankNYuo_xCJNKSE_gl-20" edge="1">
          <mxGeometry width="50" height="50" relative="1" as="geometry">
            <mxPoint x="1050" y="-1920" as="sourcePoint" />
            <mxPoint x="1100" y="-1970" as="targetPoint" />
          </mxGeometry>
        </mxCell>
        <mxCell id="D2-1hBckSNmePxxfXaN8-1" value="RequestContext" style="html=1;whiteSpace=wrap;" parent="1" vertex="1">
          <mxGeometry x="-510" y="-1730" width="110" height="50" as="geometry" />
        </mxCell>
        <mxCell id="D2-1hBckSNmePxxfXaN8-2" value="&amp;lt;&amp;lt;interface&amp;gt;&amp;gt;&lt;br&gt;IHandler" style="swimlane;fontStyle=0;childLayout=stackLayout;horizontal=1;startSize=26;fillColor=none;horizontalStack=0;resizeParent=1;resizeParentMax=0;resizeLast=0;collapsible=1;marginBottom=0;whiteSpace=wrap;html=1;" parent="1" vertex="1">
          <mxGeometry x="-320" y="-1750" width="270" height="70" as="geometry" />
        </mxCell>
        <mxCell id="D2-1hBckSNmePxxfXaN8-3" value="+handle (RequestContext)" style="text;strokeColor=none;fillColor=none;align=left;verticalAlign=top;spacingLeft=4;spacingRight=4;overflow=hidden;rotatable=0;points=[[0,0.5],[1,0.5]];portConstraint=eastwest;whiteSpace=wrap;html=1;" parent="D2-1hBckSNmePxxfXaN8-2" vertex="1">
          <mxGeometry y="26" width="270" height="44" as="geometry" />
        </mxCell>
        <mxCell id="D2-1hBckSNmePxxfXaN8-4" value="1" style="endArrow=open;html=1;endSize=12;startArrow=none;startSize=14;startFill=0;edgeStyle=orthogonalEdgeStyle;align=left;verticalAlign=bottom;rounded=0;dashed=1;exitX=0;exitY=0.5;exitDx=0;exitDy=0;entryX=1;entryY=0.5;entryDx=0;entryDy=0;" parent="1" target="D2-1hBckSNmePxxfXaN8-1" edge="1">
          <mxGeometry x="-1" y="3" relative="1" as="geometry">
            <mxPoint x="-320" y="-1706" as="sourcePoint" />
            <mxPoint x="-430" y="-1634" as="targetPoint" />
            <Array as="points">
              <mxPoint x="-320" y="-1705" />
            </Array>
          </mxGeometry>
        </mxCell>
        <mxCell id="D2-1hBckSNmePxxfXaN8-6" value="1" style="endArrow=open;html=1;endSize=12;startArrow=none;startSize=14;startFill=0;edgeStyle=orthogonalEdgeStyle;align=left;verticalAlign=bottom;rounded=0;dashed=1;exitX=0;exitY=0.5;exitDx=0;exitDy=0;entryX=1;entryY=0.5;entryDx=0;entryDy=0;" parent="1" edge="1">
          <mxGeometry x="-1" y="3" relative="1" as="geometry">
            <mxPoint x="30" y="-1705" as="sourcePoint" />
            <mxPoint x="-50" y="-1704" as="targetPoint" />
            <Array as="points">
              <mxPoint x="30" y="-1704" />
            </Array>
          </mxGeometry>
        </mxCell>
        <mxCell id="D2-1hBckSNmePxxfXaN8-8" value="Client" style="html=1;whiteSpace=wrap;" parent="1" vertex="1">
          <mxGeometry x="30" y="-1730" width="110" height="50" as="geometry" />
        </mxCell>
        <mxCell id="D2-1hBckSNmePxxfXaN8-9" value="" style="endArrow=block;dashed=1;endFill=0;endSize=12;html=1;rounded=0;entryX=0.459;entryY=1.091;entryDx=0;entryDy=0;entryPerimeter=0;" parent="1" target="D2-1hBckSNmePxxfXaN8-3" edge="1">
          <mxGeometry width="160" relative="1" as="geometry">
            <mxPoint x="-196" y="-1600" as="sourcePoint" />
            <mxPoint x="90" y="-1290.5" as="targetPoint" />
          </mxGeometry>
        </mxCell>
        <mxCell id="D2-1hBckSNmePxxfXaN8-13" value="BaseHandler" style="swimlane;fontStyle=1;align=center;verticalAlign=top;childLayout=stackLayout;horizontal=1;startSize=26;horizontalStack=0;resizeParent=1;resizeParentMax=0;resizeLast=0;collapsible=1;marginBottom=0;whiteSpace=wrap;html=1;" parent="1" vertex="1">
          <mxGeometry x="-280" y="-1600" width="160" height="110" as="geometry" />
        </mxCell>
        <mxCell id="D2-1hBckSNmePxxfXaN8-14" value="- next: IHandler" style="text;strokeColor=none;fillColor=none;align=left;verticalAlign=top;spacingLeft=4;spacingRight=4;overflow=hidden;rotatable=0;points=[[0,0.5],[1,0.5]];portConstraint=eastwest;whiteSpace=wrap;html=1;" parent="D2-1hBckSNmePxxfXaN8-13" vertex="1">
          <mxGeometry y="26" width="160" height="26" as="geometry" />
        </mxCell>
        <mxCell id="D2-1hBckSNmePxxfXaN8-15" value="" style="line;strokeWidth=1;fillColor=none;align=left;verticalAlign=middle;spacingTop=-1;spacingLeft=3;spacingRight=3;rotatable=0;labelPosition=right;points=[];portConstraint=eastwest;strokeColor=inherit;" parent="D2-1hBckSNmePxxfXaN8-13" vertex="1">
          <mxGeometry y="52" width="160" height="8" as="geometry" />
        </mxCell>
        <mxCell id="D2-1hBckSNmePxxfXaN8-16" value="+ BaseHandler(IHandler)&lt;br&gt;+handle(RequestContext)" style="text;strokeColor=none;fillColor=none;align=left;verticalAlign=top;spacingLeft=4;spacingRight=4;overflow=hidden;rotatable=0;points=[[0,0.5],[1,0.5]];portConstraint=eastwest;whiteSpace=wrap;html=1;" parent="D2-1hBckSNmePxxfXaN8-13" vertex="1">
          <mxGeometry y="60" width="160" height="50" as="geometry" />
        </mxCell>
        <mxCell id="D2-1hBckSNmePxxfXaN8-17" value="ValidationHandler" style="html=1;whiteSpace=wrap;" parent="1" vertex="1">
          <mxGeometry x="-255" y="-1440" width="110" height="50" as="geometry" />
        </mxCell>
        <mxCell id="D2-1hBckSNmePxxfXaN8-18" value="" style="endArrow=block;endSize=16;endFill=0;html=1;rounded=0;" parent="1" edge="1">
          <mxGeometry width="160" relative="1" as="geometry">
            <mxPoint x="-200" y="-1439" as="sourcePoint" />
            <mxPoint x="-200" y="-1490" as="targetPoint" />
          </mxGeometry>
        </mxCell>
        <mxCell id="D2-1hBckSNmePxxfXaN8-20" value="AuthorizationHandler" style="html=1;whiteSpace=wrap;" parent="1" vertex="1">
          <mxGeometry x="-410" y="-1440" width="120" height="50" as="geometry" />
        </mxCell>
        <mxCell id="D2-1hBckSNmePxxfXaN8-21" value="ResultHandler" style="html=1;whiteSpace=wrap;" parent="1" vertex="1">
          <mxGeometry x="-110" y="-1440" width="110" height="50" as="geometry" />
        </mxCell>
        <mxCell id="D2-1hBckSNmePxxfXaN8-22" value="" style="endArrow=none;html=1;rounded=0;exitX=0.5;exitY=0;exitDx=0;exitDy=0;" parent="1" source="D2-1hBckSNmePxxfXaN8-20" edge="1">
          <mxGeometry width="50" height="50" relative="1" as="geometry">
            <mxPoint x="130" y="-1400" as="sourcePoint" />
            <mxPoint x="-200" y="-1460" as="targetPoint" />
            <Array as="points">
              <mxPoint x="-350" y="-1460" />
            </Array>
          </mxGeometry>
        </mxCell>
        <mxCell id="D2-1hBckSNmePxxfXaN8-23" value="" style="endArrow=none;html=1;rounded=0;exitX=0.5;exitY=0;exitDx=0;exitDy=0;" parent="1" edge="1">
          <mxGeometry width="50" height="50" relative="1" as="geometry">
            <mxPoint x="-60" y="-1440" as="sourcePoint" />
            <mxPoint x="-200" y="-1460" as="targetPoint" />
            <Array as="points">
              <mxPoint x="-60" y="-1460" />
            </Array>
          </mxGeometry>
        </mxCell>
        <mxCell id="hm9C4941oL646kJTzpKB-1" value="&amp;lt;&amp;lt;abstract&amp;gt;&amp;gt;&lt;br&gt;Generator" style="swimlane;fontStyle=0;childLayout=stackLayout;horizontal=1;startSize=40;fillColor=none;horizontalStack=0;resizeParent=1;resizeParentMax=0;resizeLast=0;collapsible=1;marginBottom=0;whiteSpace=wrap;html=1;" vertex="1" parent="1">
          <mxGeometry x="-990" y="-2699" width="230" height="130" as="geometry" />
        </mxCell>
        <mxCell id="hm9C4941oL646kJTzpKB-2" value="+ GenerateRaport()&lt;br&gt;# GetData()&lt;br&gt;# PrepareData()&lt;br&gt;# GenerateFile()&lt;br&gt;# SendFIle()" style="text;strokeColor=none;fillColor=none;align=left;verticalAlign=top;spacingLeft=4;spacingRight=4;overflow=hidden;rotatable=0;points=[[0,0.5],[1,0.5]];portConstraint=eastwest;whiteSpace=wrap;html=1;" vertex="1" parent="hm9C4941oL646kJTzpKB-1">
          <mxGeometry y="40" width="230" height="90" as="geometry" />
        </mxCell>
        <mxCell id="hm9C4941oL646kJTzpKB-3" value="ExcelGenerator" style="swimlane;fontStyle=0;childLayout=stackLayout;horizontal=1;startSize=40;fillColor=none;horizontalStack=0;resizeParent=1;resizeParentMax=0;resizeLast=0;collapsible=1;marginBottom=0;whiteSpace=wrap;html=1;" vertex="1" parent="1">
          <mxGeometry x="-750" y="-2495" width="230" height="100" as="geometry" />
        </mxCell>
        <mxCell id="hm9C4941oL646kJTzpKB-4" value="- PrepareData()&lt;br&gt;- GenerateFile()" style="text;strokeColor=none;fillColor=none;align=left;verticalAlign=top;spacingLeft=4;spacingRight=4;overflow=hidden;rotatable=0;points=[[0,0.5],[1,0.5]];portConstraint=eastwest;whiteSpace=wrap;html=1;" vertex="1" parent="hm9C4941oL646kJTzpKB-3">
          <mxGeometry y="40" width="230" height="60" as="geometry" />
        </mxCell>
        <mxCell id="hm9C4941oL646kJTzpKB-5" value="CsvGenerator" style="swimlane;fontStyle=0;childLayout=stackLayout;horizontal=1;startSize=40;fillColor=none;horizontalStack=0;resizeParent=1;resizeParentMax=0;resizeLast=0;collapsible=1;marginBottom=0;whiteSpace=wrap;html=1;" vertex="1" parent="1">
          <mxGeometry x="-990" y="-2495" width="230" height="100" as="geometry" />
        </mxCell>
        <mxCell id="hm9C4941oL646kJTzpKB-6" value="- PrepareData()&lt;br&gt;- GenerateFile()" style="text;strokeColor=none;fillColor=none;align=left;verticalAlign=top;spacingLeft=4;spacingRight=4;overflow=hidden;rotatable=0;points=[[0,0.5],[1,0.5]];portConstraint=eastwest;whiteSpace=wrap;html=1;" vertex="1" parent="hm9C4941oL646kJTzpKB-5">
          <mxGeometry y="40" width="230" height="60" as="geometry" />
        </mxCell>
        <mxCell id="hm9C4941oL646kJTzpKB-7" value="PdfGenerator" style="swimlane;fontStyle=0;childLayout=stackLayout;horizontal=1;startSize=40;fillColor=none;horizontalStack=0;resizeParent=1;resizeParentMax=0;resizeLast=0;collapsible=1;marginBottom=0;whiteSpace=wrap;html=1;" vertex="1" parent="1">
          <mxGeometry x="-1240" y="-2495" width="230" height="100" as="geometry" />
        </mxCell>
        <mxCell id="hm9C4941oL646kJTzpKB-8" value="- GetData()&lt;br&gt;- PrepareData()&lt;br&gt;- GenerateFile()" style="text;strokeColor=none;fillColor=none;align=left;verticalAlign=top;spacingLeft=4;spacingRight=4;overflow=hidden;rotatable=0;points=[[0,0.5],[1,0.5]];portConstraint=eastwest;whiteSpace=wrap;html=1;" vertex="1" parent="hm9C4941oL646kJTzpKB-7">
          <mxGeometry y="40" width="230" height="60" as="geometry" />
        </mxCell>
        <mxCell id="hm9C4941oL646kJTzpKB-9" value="" style="endArrow=block;endSize=16;endFill=0;html=1;rounded=0;entryX=0.477;entryY=1.015;entryDx=0;entryDy=0;entryPerimeter=0;" edge="1" parent="1" target="hm9C4941oL646kJTzpKB-2">
          <mxGeometry width="160" relative="1" as="geometry">
            <mxPoint x="-880" y="-2493.5" as="sourcePoint" />
            <mxPoint x="-880" y="-2544.5" as="targetPoint" />
          </mxGeometry>
        </mxCell>
        <mxCell id="hm9C4941oL646kJTzpKB-10" value="" style="endArrow=none;html=1;rounded=0;exitX=0.5;exitY=0;exitDx=0;exitDy=0;" edge="1" parent="1" source="hm9C4941oL646kJTzpKB-7">
          <mxGeometry width="50" height="50" relative="1" as="geometry">
            <mxPoint x="-1030" y="-2494.5" as="sourcePoint" />
            <mxPoint x="-880" y="-2514.5" as="targetPoint" />
            <Array as="points">
              <mxPoint x="-1125" y="-2514" />
            </Array>
          </mxGeometry>
        </mxCell>
        <mxCell id="hm9C4941oL646kJTzpKB-11" value="" style="endArrow=none;html=1;rounded=0;exitX=0.5;exitY=0;exitDx=0;exitDy=0;" edge="1" parent="1" source="hm9C4941oL646kJTzpKB-3">
          <mxGeometry width="50" height="50" relative="1" as="geometry">
            <mxPoint x="-740" y="-2494.5" as="sourcePoint" />
            <mxPoint x="-880" y="-2514.5" as="targetPoint" />
            <Array as="points">
              <mxPoint x="-635" y="-2514" />
            </Array>
          </mxGeometry>
        </mxCell>
        <mxCell id="hm9C4941oL646kJTzpKB-12" value="Client" style="rounded=1;whiteSpace=wrap;html=1;" vertex="1" parent="1">
          <mxGeometry x="-947" y="-2300" width="120" height="60" as="geometry" />
        </mxCell>
        <mxCell id="hm9C4941oL646kJTzpKB-13" value="Use" style="endArrow=open;endSize=12;dashed=1;html=1;rounded=0;exitX=0;exitY=0.5;exitDx=0;exitDy=0;entryX=0.501;entryY=1.003;entryDx=0;entryDy=0;entryPerimeter=0;" edge="1" parent="1" target="hm9C4941oL646kJTzpKB-8">
          <mxGeometry width="160" relative="1" as="geometry">
            <mxPoint x="-890" y="-2300" as="sourcePoint" />
            <mxPoint x="-980" y="-2300" as="targetPoint" />
            <Array as="points">
              <mxPoint x="-1125" y="-2320" />
            </Array>
          </mxGeometry>
        </mxCell>
        <mxCell id="hm9C4941oL646kJTzpKB-14" value="Use" style="endArrow=open;endSize=12;dashed=1;html=1;rounded=0;exitX=0.5;exitY=0;exitDx=0;exitDy=0;entryX=0.512;entryY=1.044;entryDx=0;entryDy=0;entryPerimeter=0;" edge="1" parent="1" source="hm9C4941oL646kJTzpKB-12" target="hm9C4941oL646kJTzpKB-4">
          <mxGeometry width="160" relative="1" as="geometry">
            <mxPoint x="-880" y="-2290" as="sourcePoint" />
            <mxPoint x="-1115" y="-2385" as="targetPoint" />
            <Array as="points">
              <mxPoint x="-660" y="-2330" />
            </Array>
          </mxGeometry>
        </mxCell>
        <mxCell id="hm9C4941oL646kJTzpKB-15" value="Use" style="endArrow=open;endSize=12;dashed=1;html=1;rounded=0;exitX=0.5;exitY=0;exitDx=0;exitDy=0;entryX=0.515;entryY=1.017;entryDx=0;entryDy=0;entryPerimeter=0;" edge="1" parent="1" source="hm9C4941oL646kJTzpKB-12" target="hm9C4941oL646kJTzpKB-6">
          <mxGeometry width="160" relative="1" as="geometry">
            <mxPoint x="-880" y="-2290" as="sourcePoint" />
            <mxPoint x="-1115" y="-2385" as="targetPoint" />
            <Array as="points" />
          </mxGeometry>
        </mxCell>
      </root>
    </mxGraphModel>
  </diagram>
</mxfile>
